<svg width="391" height="387" viewBox="0 0 391 387" fill="none" xmlns="http://www.w3.org/2000/svg">
<path d="M102.237 350.67C102.186 350.647 102.147 350.63 102.077 350.599C101.272 350.247 100.537 350.135 99.6885 350.151C98.1785 350.181 96.6285 350.473 95.1195 350.602C92.3325 350.839 89.2875 351.802 86.5495 350.877C81.7245 349.247 80.3995 357.84 85.1795 359.455C87.9205 360.381 90.6995 359.894 93.4645 359.552C93.8045 364.246 87.6905 370.567 84.1045 371.221C77.0555 372.506 76.6415 360.619 76.6535 355.55C76.6625 351.792 76.2055 343.486 79.8425 341.703C82.8835 340.212 87.9645 342.33 91.0765 342.583C96.0215 342.986 97.4375 334.412 92.4465 334.005C84.9965 333.398 74.9505 329.899 70.9535 339.397C67.4565 347.705 67.9295 361.509 71.0035 369.848C74.2835 378.747 80.6075 382.564 88.6205 378.657C95.1405 375.478 101.419 367.597 101.142 359.311C101.516 359.375 101.899 359.41 102.337 359.374C107.105 358.975 106.655 351.001 102.237 350.67Z" fill="#33160D"/>
<path d="M128.772 378.764C129.119 378.972 127.879 376.216 127.616 375.707C126.244 373.061 124.574 370.731 123.455 367.927C122.47 365.46 121.163 362.927 120.086 360.384C122.612 359.823 124.887 358.699 126.842 356.489C129.544 353.436 130.706 349.202 129.589 345.248C128.481 341.324 125.488 338.702 121.991 336.857C120.146 335.883 118.127 334.816 116.094 334.309C113.791 333.735 112.044 334.419 109.78 334.567C106.333 334.792 105.344 338.585 106.72 340.792C108.09 346.072 107.003 352.433 106.938 357.793C106.88 362.561 106.663 367.284 106.718 372.05C106.717 372.111 106.703 372.165 106.704 372.228L106.724 373.135C106.832 378.138 114.604 377.978 114.498 372.967C114.454 370.878 114.523 368.711 114.636 366.504C115.617 368.804 116.349 371.206 117.438 373.471C118.704 376.104 120.341 378.514 121.563 381.159C122.442 383.061 123.136 384.451 124.993 385.562C129.299 388.139 133.06 381.33 128.772 378.764ZM116.291 342.712C117.917 343.454 119.933 344.278 121.128 345.648C122.574 347.306 122.536 349.367 121.225 351.11C119.752 353.067 117.608 353.096 115.412 353.118C115.53 349.404 115.456 345.737 114.932 342.251C115.363 342.352 115.807 342.492 116.291 342.712Z" fill="#33160D"/>
<path d="M145.309 336.418C145.126 335.489 144.396 334.576 143.524 334.062C141.876 331.522 136.645 332.269 136.217 336.286C135.864 339.604 134.139 342.87 133.503 346.18C133.049 348.547 132.705 350.95 132.279 353.323C131.179 359.447 129.579 365.417 128.424 371.507C127.497 376.395 134.981 378.525 135.913 373.607C136.368 371.208 136.888 368.827 137.419 366.448C137.549 366.462 137.699 366.477 137.873 366.492C138.579 366.571 139.322 366.53 140.011 366.657C141.469 366.928 142.712 367.473 144.191 367.63C144.733 370.837 145.152 374.052 145.368 377.279C145.701 382.244 153.48 382.317 153.144 377.313C152.219 363.508 147.974 349.95 145.309 336.418ZM139.892 359.691C139.442 359.66 139.005 359.641 138.565 359.618C139.289 356.21 139.98 352.791 140.573 349.341C140.744 348.343 140.95 347.352 141.161 346.362C142.31 351.185 143.436 355.949 144.5 360.782C142.986 360.315 141.454 359.798 139.892 359.691Z" fill="#33160D"/>
<path d="M171.845 355.205C175.282 352.664 177.525 349.245 176.38 343.927C174.685 336.05 166.89 333.159 159.74 332.719C158.502 332.643 157.572 333.064 156.945 333.744C154.173 332.739 150.486 334.7 151.819 338.125C153.748 343.083 153.056 349.876 153.725 355.12C154.518 361.336 156.206 367.578 156.241 373.868C156.252 375.797 157.997 377.998 160.112 377.773C167.504 376.987 176.461 375.352 177.754 366.452C178.484 361.438 175.675 357.698 171.845 355.205ZM166.889 349.626C165.84 350.711 162.879 351.533 161.274 352.186C161.059 348.393 161.082 344.311 160.481 340.568C164.272 341.031 172.895 343.415 166.889 349.626ZM163.754 369.493C163.398 366.148 162.747 362.84 162.176 359.518C165.187 360.161 168.73 360.809 169.211 364.513C169.62 367.658 166.762 368.897 163.754 369.493Z" fill="#33160D"/>
<path d="M212.452 368.043C211.685 362.238 211.157 356.427 210.432 350.619C209.803 345.582 210.239 339.199 208.273 334.39C207.575 332.681 205.682 332.175 204.099 332.511C202.199 332.005 199.667 332.886 199.534 335.161C198.912 345.813 192.292 355.677 192.521 366.431C192.6 370.16 199.244 370.173 199.165 366.431C199.118 364.211 199.381 362.022 199.811 359.849C200.356 359.723 200.636 359.611 201.103 359.643C201.266 359.654 202.386 359.813 201.602 359.628C201.857 359.688 202.111 359.753 202.368 359.806C203.232 359.984 204.057 360.033 204.839 359.927C205.139 362.633 205.451 365.338 205.809 368.043C206.292 371.709 212.942 371.752 212.452 368.043ZM201.144 354.517C200.955 354.509 200.775 354.521 200.589 354.519C201.598 351.258 202.707 347.006 203.767 343.746C203.767 343.746 204.879 353.943 204.967 354.747C204.747 354.8 204.529 354.853 204.317 354.931C204.251 354.92 204.186 354.91 204.158 354.904C203.169 354.689 202.164 354.563 201.144 354.517Z" fill="#33160D"/>
<path d="M216.464 378C215.659 376.492 214.183 375.594 212.415 375.535C210.245 375.462 208.149 375.057 205.931 374.63C204.385 374.332 202.786 374.024 201.156 373.836C198.331 373.511 195.801 373.831 193.357 374.139C192.527 374.243 191.684 374.35 190.813 374.434C188.994 374.61 187.519 375.658 186.766 377.311C185.998 378.996 186.142 380.985 187.135 382.375C188.014 383.607 189.461 384.225 191.102 384.064C191.994 383.978 192.857 383.87 193.706 383.763C196.257 383.443 198.666 383.141 201.307 383.561C202.384 383.732 203.448 383.931 204.507 384.13C207.016 384.601 209.61 385.087 212.317 385.177C212.377 385.179 212.437 385.18 212.497 385.18C214.125 385.18 215.518 384.436 216.336 383.12C217.271 381.616 217.321 379.606 216.464 378Z" fill="#33160D"/>
<path d="M249.644 362.955C248.279 366.51 243.432 368.583 240.824 367.372C236.401 365.318 236.686 354.844 236.747 350.639C236.776 348.651 236.585 346.247 237.934 344.636C238.457 344.011 239.17 343.585 239.907 343.262C241.994 342.347 244.343 342.205 246.517 342.848C248.583 343.459 250.505 344.794 252.739 344.354C255.012 343.907 255.73 339.158 253.528 338.122C252.541 337.657 251.864 336.468 250.777 335.872C245.927 333.214 237.972 332.324 233.255 335.665C230.4 337.687 228.745 341.141 228.1 344.647C227.312 348.935 227.693 353.522 228.203 357.827C229.137 365.713 232.334 374.562 240.79 375.345C246.388 375.864 255.983 372.311 256.427 365.147C256.654 361.515 251.02 359.372 249.644 362.955Z" fill="#33160D"/>
<path d="M281.348 352.153C280.705 344.032 274.594 328.562 262.926 333.235C259.634 334.553 258.194 337.694 257.568 341.01C257.308 341.364 257.12 341.802 257.061 342.337C256.119 350.905 254.514 371.663 267.1 374.334C278.506 376.755 281.936 359.579 281.348 352.153ZM266.48 365.287C266.341 365.086 266.231 364.867 266.156 364.636C265.394 362.28 265.733 359.185 265.59 356.729C265.403 353.518 265.247 350.304 265.171 347.089C265.133 345.484 265.119 343.849 265.61 342.314C265.751 341.873 265.969 341.405 266.405 341.203C267.06 340.901 267.817 341.346 268.348 341.819C270.28 343.538 271.503 345.882 272.196 348.31C273.053 351.308 275.302 367.053 268.628 366.528C267.763 366.46 266.954 365.976 266.48 365.287Z" fill="#33160D"/>
<path d="M292.044 339.804C295.103 339.921 300.423 342.073 302.928 339.602C304.858 337.698 303.959 334.141 301.298 333.463C299.682 333.051 298.218 333.182 296.58 333.131C294.659 333.071 292.777 332.626 290.852 332.602C288.505 332.572 284.656 332.698 282.701 334.113C280.891 335.427 281.772 337.313 282.018 339.246C282.691 344.539 282.674 350.064 282.899 355.393C283.145 361.212 283.607 367.196 284.505 372.956C285.166 377.196 291.856 376.018 291.924 371.969C292.017 366.379 291.39 360.775 291.071 355.194C291.997 355.312 292.923 355.424 293.85 355.517C295.781 355.71 297.834 356.116 299.68 355.397C303.023 354.096 303.029 349.983 299.68 348.679C297.848 347.966 295.769 348.364 293.85 348.559C292.779 348.668 291.71 348.8 290.642 348.937C290.391 345.967 289.771 343.025 289.518 340.072C290.357 339.837 291.199 339.772 292.044 339.804Z" fill="#33160D"/>
<path d="M325.061 336.078C325.153 335.735 325.181 335.381 325.13 335.041C324.903 333.539 323.616 332.768 322.028 332.589C317.198 332.044 312.626 334.105 307.978 333.757C306.957 333.68 305.95 334.072 305.406 335.122C305.151 335.486 305.017 335.904 305.03 336.352C303.458 347.887 303.993 360.037 304.332 371.639C304.455 375.839 311.5 375.846 311.623 371.639C311.761 366.923 311.924 362.116 311.972 357.297C314.609 357.225 317.27 356.427 319.899 356.308C322.337 356.197 323.795 353.526 321.944 351.887C320.397 350.518 318.249 349.894 316.086 349.949C313.107 350.025 312.029 350.619 311.83 347.73C311.716 346.084 311.146 343.835 311.516 342.224C311.934 340.405 312.359 340.611 314.703 340.333C317.452 340.007 320.423 340.257 323.04 339.343C324.74 338.75 325.419 337.324 325.061 336.078Z" fill="#33160D"/>
<path d="M341.753 372.785C341.772 372.774 341.81 372.75 341.896 372.695C341.85 372.724 341.801 372.755 341.753 372.785Z" fill="#33160D"/>
<path d="M346.17 356.747C349.301 354.687 348.161 350.93 347.537 347.753C345.902 339.439 339.647 329.305 330.695 335.651C322.869 341.199 324.433 355.363 326.348 363.732C327.258 367.709 329.001 371.954 332.734 373.737C334.801 374.725 337.159 374.819 339.325 374.07C340.175 373.776 340.989 373.272 341.756 372.784C341.545 372.912 345.302 370.463 343.9 371.044C347.283 369.642 346.836 364.525 343.038 364.249C340.903 364.094 339.074 365.619 337.001 365.604C333.089 365.576 334.973 358.209 334.475 358.172C338.206 358.451 343.526 358.487 346.17 356.747ZM333.458 351.345C333.356 349.703 333.365 348.104 333.561 346.677C334.226 341.832 337.6 341.082 339.826 345.614C340.565 347.119 340.552 348.928 340.915 350.568C339.932 350.702 338.945 350.792 337.953 350.82C336.413 350.958 334.942 351.094 333.458 351.345Z" fill="#33160D"/>
<path d="M370.899 363.337C370.239 363.353 369.567 363.471 368.943 363.646C367.289 364.11 365.692 364.9 363.972 364.927C360.474 364.983 357.505 361.187 358.454 357.873C360.935 358.09 363.44 358.047 365.913 357.745C367.043 357.607 368.206 357.4 369.145 356.766C371.066 355.47 371.453 352.871 371.526 350.58C371.66 346.339 371.236 341.864 368.818 338.352C366.4 334.84 361.47 332.718 357.604 334.594C355.994 335.375 354.742 336.737 353.759 338.216C349.009 345.36 347.91 357.566 350.772 365.563C351.944 368.838 354.313 371.869 357.634 373.038C360.894 374.186 364.497 373.409 367.84 372.524C369.866 371.988 371.984 371.356 373.432 369.862C374.88 368.368 375.328 365.731 373.819 364.296C373.05 363.562 371.989 363.311 370.899 363.337ZM364.945 350.324C362.719 350.275 360.458 350.548 358.24 350.799C358.279 348.333 358.371 343.934 359.085 343.369C362.619 340.57 364.147 345.954 364.945 350.324Z" fill="#33160D"/>
<path d="M61.1867 306.277C64.2057 303.433 65.0357 299.031 63.8167 294.874C62.4437 290.19 56.3067 288.44 51.7637 289.479C53.5377 291.347 54.7327 294.067 55.8547 296.228C57.4227 299.246 59.0117 303.374 61.1867 306.277Z" fill="#33160D"/>
<path d="M26.9436 314.459C26.8756 314.396 26.7976 314.329 26.7326 314.267C25.4126 312.988 24.1076 311.176 22.6926 309.556C23.2186 311.468 23.7506 313.381 24.1676 315.347C24.3166 315.288 24.4556 315.217 24.6146 315.168C25.1896 314.993 25.7786 314.876 26.3556 314.71C26.5436 314.656 26.7466 314.567 26.9436 314.459Z" fill="#33160D"/>
<path d="M83.7166 306.774C83.8126 305.775 83.4856 304.812 82.8266 303.866C80.5826 300.645 78.2636 297.455 76.0756 294.187C75.5026 292.523 74.9106 290.855 73.9906 289.195C73.0416 287.481 71.9146 285.855 70.7566 284.242C70.9696 283.464 70.9076 282.582 70.3856 281.65C70.2796 281.461 70.1716 281.299 70.0646 281.128C69.4316 277.468 68.4966 273.617 65.8776 270.968C62.1426 267.19 57.0046 268.708 52.3276 269.446C47.5316 270.203 40.9546 272.88 37.9086 276.78C37.7386 276.998 37.6056 277.242 37.5056 277.502C36.8946 277.463 36.2426 277.582 35.5816 277.906C27.2916 281.969 19.1296 286.199 11.7906 291.775C8.94458 293.472 6.10558 295.18 3.26258 296.88C0.594581 298.476 0.83458 301.426 2.63258 302.953C2.85058 303.591 3.09258 304.229 3.36458 304.865C0.800579 305.503 -0.464421 308.883 1.44058 311.028C1.93058 311.58 2.44458 312.094 2.96858 312.592C4.61858 318.341 8.74858 325.432 13.2486 327.088C13.3856 327.268 13.5206 327.449 13.6616 327.628C13.8966 327.962 14.1406 328.288 14.3826 328.616C16.0566 333.222 18.2036 338.792 22.1506 340.849C22.6916 341.131 23.2826 341.258 23.8726 341.288C23.2946 344.026 25.6956 347.029 29.0536 345.443C29.2566 345.347 29.4606 345.251 29.6646 345.155C30.2186 344.893 30.6456 344.557 30.9636 344.174C32.1686 343.379 33.3826 342.598 34.6076 341.837C34.9616 342.195 35.3796 342.487 35.8346 342.695C37.0726 345.995 39.5626 349.081 42.0226 351.228C45.7946 354.519 52.2626 359.034 57.4466 359.164C57.9816 359.177 58.3496 358.909 58.5496 358.546C59.7046 358.291 59.6706 356.273 58.2486 356.067C58.1736 356.056 58.0996 356.032 58.0246 356.018C57.8106 355.551 57.3476 355.224 56.6956 355.397C56.5866 355.426 56.4836 355.419 56.3786 355.429C55.3946 354.918 54.4506 354.162 53.5866 353.269C52.2526 350.793 51.5936 346.958 51.5866 345.781C51.5636 342.107 51.8266 338.175 53.3526 334.801C53.3616 334.797 53.3716 334.795 53.3806 334.791C57.3356 332.891 61.0146 330.283 64.5336 327.665C65.4496 326.983 66.5846 326.288 67.7176 325.544C71.2886 323.926 74.4136 320.961 76.8306 317.967C77.6926 317.414 78.5526 316.857 79.4036 316.285C81.6016 314.808 84.5586 312.452 84.5266 309.479C84.5166 308.528 84.1986 307.63 83.7166 306.774ZM66.7586 292.015C68.3336 295.264 68.3706 299.791 67.5276 303.253C66.7096 306.615 64.6596 308.622 61.9026 310.492C61.2346 310.945 60.1686 310.81 59.6176 310.236C57.1306 307.647 55.8276 303.784 54.0596 300.701C53.0846 299 52.2496 297.219 51.2586 295.531C50.6796 294.546 49.7546 292.431 48.7716 291.729C48.1876 291.312 47.9466 290.724 47.9406 290.142C46.7746 289.487 46.2806 287.709 47.7926 286.959C53.8616 283.95 63.5116 285.317 66.7586 292.015ZM39.0666 309.051C40.1236 310.713 41.1406 312.269 42.3346 313.831C43.1006 314.832 43.8016 315.816 44.0426 317.067C44.5016 319.455 40.7756 319.995 40.3196 317.625C40.1006 316.486 38.5286 315.206 37.8846 314.296C37.0376 313.099 36.4106 311.761 35.5766 310.556C33.6316 307.743 31.5886 304.646 29.1466 302.245C29.0596 302.16 28.9906 302.069 28.9236 301.977C27.1646 301.002 28.5656 297.969 30.7246 298.654C34.6886 299.912 38.1706 302.596 41.9646 304.299C43.8206 305.132 45.7606 305.851 47.5046 306.916C46.8126 305.72 46.1426 304.51 45.3856 303.351C43.1506 299.93 40.9886 296.402 38.7256 292.995C37.3916 290.987 40.3446 288.651 41.6866 290.672C44.3916 294.745 47.1716 298.912 49.6866 303.101C51.2206 305.656 54.4946 309.169 54.1296 312.357C53.9886 313.595 52.6786 314.306 51.5476 313.873C47.6426 312.379 44.4076 309.52 40.5366 307.783C39.3286 307.241 38.1426 306.592 36.9596 305.923C37.6936 306.963 38.4046 308.009 39.0666 309.051ZM11.7216 303.204C10.8596 304.572 8.76758 303.186 9.62958 301.818C11.4106 298.99 15.9826 297.648 18.6046 295.826C21.9126 293.527 25.2686 291.347 28.7086 289.225C35.9906 284.733 43.0086 279.965 51.3236 277.504C52.8776 277.044 53.3916 279.502 51.8546 279.957C44.5506 282.119 38.2086 286.289 31.8106 290.232C28.3886 292.341 24.9326 294.497 21.6016 296.753C18.8556 298.613 13.4336 300.485 11.7216 303.204ZM23.6816 329.833C22.9596 325.679 21.4756 321.665 20.7516 317.467C20.0366 313.325 18.6536 309.496 17.7856 305.442C16.9216 304.023 18.5596 302.132 20.1386 302.804C24.0996 304.489 26.9906 309.321 30.0066 312.222C32.5246 314.644 36.6006 317.371 37.6836 320.855C38.0016 321.878 37.5706 323.419 36.2356 323.465L35.9416 323.475C34.6346 323.52 33.8756 322.437 33.8396 321.427C33.0086 319.802 31.4226 318.313 29.8406 316.959C29.7776 317.033 29.7136 317.106 29.6406 317.172C28.8126 317.919 27.7556 318.218 26.7006 318.486C26.2446 318.602 25.9336 318.659 25.6086 318.787C25.5146 318.824 25.1256 318.999 25.1846 318.978C25.1966 318.974 25.0346 319.214 25.1746 318.956C25.1146 319.066 25.0476 319.171 24.9746 319.27C25.7506 322.626 26.8166 325.896 27.4036 329.274C27.8216 331.67 24.0956 332.214 23.6816 329.833ZM74.0526 312.037C72.0466 314.46 67.9026 315.02 65.1886 316.696C61.0246 319.267 57.1196 321.405 52.8246 323.718C44.7706 328.057 36.5266 333.057 28.8016 337.91C27.4306 338.772 26.3026 336.528 27.6586 335.676C34.8746 331.142 42.4746 326.916 49.7986 322.505C53.8936 320.039 58.1776 318.03 62.2146 315.465C64.1806 314.216 66.2556 312.927 68.4006 312.022C69.0056 311.766 71.4926 311.216 71.9596 310.651C72.9806 309.419 75.0836 310.792 74.0526 312.037Z" fill="#33160D"/>
<path d="M389.557 107.891C388.661 106.812 387.398 106.147 386.001 106.018C384.601 105.888 383.242 106.311 382.163 107.207C379.419 109.49 375.393 110.628 371.427 110.265C367.551 109.906 362.708 108.835 359.631 103.687C356.431 98.3338 355.462 89.3928 356.669 76.3498C357.396 68.4888 359.325 47.6078 343.785 46.1708C337.66 45.6028 332.569 48.6758 328.631 55.3138C328.087 54.2248 327.469 53.2598 326.791 52.4408C324.703 49.9148 321.894 48.4218 318.668 48.1238C313.117 47.5908 308.941 50.2788 305.927 56.3238C303.626 52.9858 300.476 51.1118 296.557 50.7488C287.445 49.9228 280.892 57.6218 277.062 73.6478C276.002 78.0808 272.808 91.4278 269.962 93.6918C269.868 93.6068 269.735 93.4578 269.564 93.1938C266.81 88.9578 266.703 74.1618 270.503 62.9338C270.952 61.6058 270.858 60.1818 270.237 58.9248C269.616 57.6678 268.542 56.7278 267.214 56.2788C264.473 55.3508 261.484 56.8278 260.558 59.5688C260.227 60.5498 259.903 61.6428 259.572 62.9008C256.727 60.7468 253.285 59.4308 249.594 59.0898C239.542 58.1378 230.735 65.0828 227.133 76.7588L227.094 76.8398C221.666 91.1488 213.952 107.389 202.492 105.988C201.356 105.85 200.131 105.061 198.937 103.701C201.153 101.398 203.821 98.7418 206.899 96.3308C217.297 88.1838 216.815 80.0468 215.601 75.9218C213.896 70.1298 208.546 65.3858 203.159 64.8878C187.097 63.3988 183.622 77.6018 182.873 83.7728C182.23 89.0678 183.404 96.0938 185.938 102.15C180.356 107.938 176.696 110.774 172.303 110.246C170.045 109.972 168.414 109.774 168.991 103.529C169.331 99.8538 171.544 92.0268 174.978 84.7608C175.982 82.6348 175.44 80.0778 173.66 78.5418C171.879 77.0058 169.27 76.8468 167.315 78.1518C162.662 81.2588 156.487 82.5778 150.353 81.7778C149.265 79.1558 147.709 76.8608 145.729 74.9538C143.039 72.3638 141.083 71.0578 139.188 70.5878C135.621 69.7028 131.974 71.0638 130.118 73.9778C127.525 78.0508 129.16 83.2548 134.095 86.6338C136.414 88.2208 138.991 89.5138 141.755 90.4798C141.957 92.4258 141.942 94.6928 141.708 97.2198C141.198 102.737 138.729 106.963 134.37 109.78C130.18 112.488 124.382 113.767 117.58 113.485C119.414 107.656 120.642 101.48 121.23 95.1218C123.11 74.7828 117.734 56.8898 105.682 43.3778C92.6767 28.7988 72.8457 20.4898 49.8407 19.9808C36.2177 19.6778 24.7727 23.0318 16.7757 29.6688C9.58666 35.6348 5.51966 43.8828 5.32266 52.8918C5.02466 66.4678 14.5697 81.3928 32.8447 82.3138C33.1787 82.3308 33.5187 82.3438 33.8597 82.3508C35.6457 82.3948 37.3927 82.3448 39.0287 82.2168L39.1247 82.8998C39.6267 86.4918 40.1447 90.2028 40.5777 93.9558C40.5107 93.9548 40.4447 93.9538 40.3777 93.9528C30.8737 93.8108 21.7387 96.4458 14.6057 101.396C6.17266 107.249 1.03666 115.788 0.144662 125.441C-0.751338 135.126 2.53666 144.268 9.40166 151.181C16.6537 158.484 27.5777 162.999 40.9927 164.239C42.1617 164.347 43.3357 164.431 44.4817 164.489C45.4387 164.537 46.3907 164.568 47.3417 164.582C61.3047 164.79 74.6057 161.335 85.9677 154.521C97.8587 147.391 107.403 136.741 113.576 123.717C113.767 123.736 113.958 123.754 114.149 123.772C124.395 124.721 133.361 122.932 140.07 118.597C147.172 114.008 151.354 106.949 152.164 98.1848C152.349 96.1848 152.423 94.2628 152.384 92.4678C155.283 92.5818 158.167 92.3588 160.975 91.8098C159.672 95.9518 158.787 99.8508 158.537 102.56C157.845 110.044 159.452 119.261 171.039 120.667C179.791 121.725 186.131 116.816 191.677 111.298C194.509 114.264 197.721 115.982 201.229 116.408C211.625 117.66 220.746 111.867 228.348 99.1898C228.775 100.012 229.178 100.696 229.601 101.318C232.796 106.017 237.55 108.982 242.643 109.453C242.914 109.478 243.182 109.497 243.451 109.511C249.271 109.794 254.871 107.388 259.151 102.702C259.892 101.892 260.628 100.942 261.396 99.8048C263.925 103.116 267.025 104.058 269.207 104.26C269.36 104.274 269.511 104.285 269.663 104.293C280.393 104.842 284.216 88.8858 287.279 76.0708C289.522 66.6948 292.561 61.1498 295.428 61.1918C295.454 61.1918 295.481 61.1928 295.506 61.1948L295.593 61.2008C297.444 61.3718 298.808 64.3138 299.434 69.4848C300.234 76.0948 299.633 84.6878 298.865 92.9878C298.736 94.3848 299.158 95.7478 300.054 96.8268C300.95 97.9058 302.213 98.5708 303.61 98.6998C303.683 98.7068 303.756 98.7118 303.832 98.7158C303.942 98.7228 304.049 98.7138 304.155 98.7048L304.428 98.6918C304.536 98.6898 304.645 98.6868 304.751 98.6728C304.963 98.6458 305.165 98.5948 305.387 98.5378L305.502 98.5108C305.578 98.4938 305.655 98.4768 305.729 98.4518C305.976 98.3698 306.205 98.2608 306.398 98.1658L306.482 98.1288C306.535 98.1058 306.588 98.0828 306.639 98.0538C306.889 97.9138 307.109 97.7518 307.29 97.6118L307.347 97.5718C307.386 97.5468 307.423 97.5208 307.458 97.4918C307.638 97.3418 307.813 97.1658 308.029 96.9198L308.075 96.8738C308.106 96.8428 308.136 96.8118 308.163 96.7788C308.335 96.5678 308.476 96.3398 308.603 96.1248C308.616 96.1028 308.631 96.0818 308.645 96.0618C308.674 96.0218 308.701 95.9808 308.725 95.9368C308.852 95.6988 308.945 95.4428 309.023 95.2228L309.056 95.1448C309.079 95.0948 309.101 95.0438 309.118 94.9878C309.221 94.6478 309.289 94.2998 309.32 93.9558C312.264 62.1098 316.071 58.5498 317.638 58.5728C317.66 58.5728 317.683 58.5748 317.704 58.5758C318.1 58.6118 318.351 58.7038 318.702 59.1288C322.46 63.6738 320.7 81.8118 319.947 89.5788C319.934 89.7098 319.939 89.8368 319.945 89.9638L319.947 90.2748C319.944 90.3948 319.941 90.5138 319.954 90.6308C319.968 90.7698 320.001 90.9038 320.033 91.0378L320.069 91.1908C320.08 91.2398 320.089 91.2888 320.098 91.3388C320.116 91.4408 320.135 91.5428 320.166 91.6388C320.211 91.7808 320.272 91.9158 320.335 92.0488L320.443 92.2988C320.479 92.3918 320.516 92.4858 320.564 92.5738C320.633 92.6988 320.715 92.8128 320.797 92.9268L320.955 93.1578C321.009 93.2438 321.065 93.3288 321.13 93.4078C321.215 93.5108 321.312 93.6018 321.408 93.6928L321.609 93.8918C321.683 93.9708 321.758 94.0498 321.843 94.1188C321.94 94.1998 322.048 94.2678 322.156 94.3358L322.404 94.5018C322.495 94.5668 322.586 94.6308 322.685 94.6838C322.797 94.7448 322.919 94.7918 323.039 94.8378L323.319 94.9548C323.423 95.0018 323.527 95.0478 323.635 95.0818C323.76 95.1198 323.891 95.1428 324.023 95.1638L324.328 95.2238C324.439 95.2508 324.551 95.2758 324.69 95.2888C324.764 95.2968 324.834 95.2938 324.905 95.2898C324.941 95.2878 324.981 95.2888 325.014 95.2868L325.082 95.2898C325.3 95.2968 325.522 95.3058 325.744 95.2808C325.776 95.2778 325.808 95.2708 325.867 95.2558C326.214 95.2088 326.495 95.1498 326.748 95.0688C326.817 95.0468 326.882 95.0178 326.947 94.9868C326.98 94.9708 327.014 94.9558 327.047 94.9418L327.132 94.9088C327.317 94.8378 327.501 94.7668 327.672 94.6728C327.844 94.5798 328.001 94.4658 328.158 94.3518L328.236 94.2948C328.267 94.2728 328.298 94.2528 328.331 94.2328C328.39 94.1948 328.449 94.1578 328.502 94.1128C328.699 93.9508 328.888 93.7628 329.143 93.4778C329.17 93.4538 329.194 93.4288 329.216 93.4028C329.412 93.1678 329.568 92.9158 329.722 92.6608C329.746 92.6288 329.769 92.5948 329.788 92.5598C329.894 92.3658 329.972 92.1608 330.046 91.9628L330.071 91.8948C330.083 91.8608 330.099 91.8278 330.115 91.7948C330.143 91.7328 330.171 91.6698 330.192 91.6038C330.234 91.4658 330.26 91.3198 330.283 91.1748L330.31 91.0208C330.319 90.9718 330.331 90.9248 330.342 90.8768C330.366 90.7748 330.39 90.6738 330.402 90.5438C332.891 63.6228 339.222 56.5608 342.637 56.6118C342.665 56.6118 342.694 56.6128 342.722 56.6148L342.819 56.6208C344.724 56.7968 345.924 59.1048 346.385 63.4788C346.795 67.3638 346.518 72.0948 346.213 75.3828C345.238 85.9508 342.267 118.109 370.461 120.715C370.818 120.748 371.175 120.774 371.532 120.791C377.847 121.104 384.336 119.049 388.875 115.279C389.953 114.382 390.618 113.12 390.748 111.724C390.875 110.333 390.453 108.97 389.557 107.891ZM256.834 80.8668C256.086 88.9618 253.465 93.3588 251.396 95.6228C249.143 98.0908 246.433 99.2548 243.607 99.0008C241.647 98.8188 239.705 97.5128 238.28 95.4168C236.501 92.8028 235.715 89.2898 236.063 85.5258C236.949 75.9428 241.813 69.4168 247.946 69.5078C248.048 69.5088 248.15 69.5118 248.251 69.5178C248.374 69.5238 248.499 69.5318 248.623 69.5448C251.383 69.7998 253.526 70.9848 254.992 73.0668C256.454 75.1388 257.108 77.9098 256.834 80.8668ZM200.42 88.0648C198.4 89.6478 196.343 91.4678 194.142 93.6198C193.328 90.4178 193.019 87.3108 193.294 85.0388C194.372 76.1628 197.816 75.1008 201.379 75.2838C201.65 75.2968 201.922 75.3178 202.191 75.3428C202.875 75.4058 204.89 76.7258 205.528 78.8858C206.604 82.5488 202.789 86.2088 200.42 88.0648ZM53.3307 57.6558C52.8467 62.9038 51.0747 66.5588 47.9187 68.8128C47.0157 59.7908 47.3267 54.5598 48.8697 52.8248C49.0067 52.6708 49.2707 52.3288 50.5437 52.3788C50.9937 52.4018 51.5507 52.7378 52.0327 53.2788C52.9987 54.3628 53.4847 55.9998 53.3307 57.6558ZM20.5887 110.024C25.9537 106.301 32.8747 104.344 40.2097 104.454C40.6277 104.46 41.0487 104.473 41.4687 104.493C41.9747 115.706 40.4057 122.893 36.6767 126.463C34.5857 128.465 34.5127 131.795 36.5137 133.886C38.5147 135.976 41.8447 136.049 43.9367 134.049C49.8137 128.424 52.3897 119.485 52.0347 105.934C60.6967 107.717 68.8677 110.732 77.5117 113.922C85.5407 116.884 93.8397 119.947 102.634 121.924C96.8717 132.648 88.3587 141.256 77.9977 146.831C67.3227 152.575 54.8567 154.978 41.9557 153.787C31.0237 152.776 22.3427 149.318 16.8487 143.785C12.1457 139.049 9.98366 133.041 10.5957 126.41C11.1977 119.898 14.7467 114.079 20.5887 110.024ZM49.3077 79.9298C60.0487 75.5368 63.1117 65.9298 63.7867 58.6228C64.2097 54.0518 62.7807 49.5568 59.8687 46.2908C57.4127 43.5358 54.1737 41.9698 50.7477 41.8808C50.7087 41.8798 50.6697 41.8788 50.6307 41.8788C45.6787 41.8048 42.6747 43.9918 41.0237 45.8478C36.3717 51.0788 36.2997 60.0068 37.6537 71.8018C36.5357 71.8648 35.3377 71.8868 34.0837 71.8558C28.7237 71.7508 24.1417 69.8718 20.8337 66.4238C17.5337 62.9838 15.7047 58.1368 15.8147 53.1248C15.9777 45.7058 19.7027 39.6578 26.5897 35.6338C32.5157 32.1708 40.5307 30.3438 49.1977 30.4728C49.3337 30.4748 49.4687 30.4778 49.6047 30.4798C69.6607 30.9178 86.7917 37.9808 97.8397 50.3668C107.904 61.6498 112.374 76.7918 110.769 94.1548C110.19 100.422 108.899 106.462 106.932 112.112C98.1787 110.357 89.9057 107.304 81.1397 104.07C71.6677 100.576 61.8767 96.9628 51.2687 95.1058C50.7817 90.4968 50.1327 85.8498 49.5027 81.3408L49.3077 79.9298Z" fill="#33160D"/>
<path d="M340.97 230.428C339.604 230.773 338.325 231.761 337.834 233.007C337.093 234.887 337.511 237.056 339.101 238.381C339.276 238.526 339.451 238.672 339.625 238.818C340.84 239.83 342.77 240.257 344.258 239.602C344.463 239.512 344.668 239.422 344.872 239.332C346.443 238.641 347.796 237.318 348.005 235.524C348.152 234.259 347.925 232.998 347.177 231.936C345.764 229.928 343.049 229.397 340.97 230.428Z" fill="#33160D"/>
<path d="M356.661 241.113C358.426 241.92 360.392 242.144 362.323 242.338C367.277 242.836 372.244 243.199 377.21 243.563C378.222 243.637 379.27 243.706 380.222 243.353C381.297 242.954 382.305 241.928 383.047 240.655C384.669 237.871 385.018 233.904 382.016 232.712C381.049 232.328 379.978 232.335 378.938 232.348C374.167 232.407 369.167 231.878 364.451 232.174C361.058 232.387 351.579 230.069 352.955 236.907C353.338 238.809 354.897 240.306 356.661 241.113Z" fill="#33160D"/>
<path d="M339.366 246.794C337.801 246.237 335.887 245.736 334.623 246.813C333.32 247.923 333.609 250.109 334.661 251.46C335.713 252.811 337.298 253.615 338.663 254.648C340.282 255.872 341.674 257.478 343.567 258.21C346.34 259.283 349.372 257.305 349.055 254.257C348.576 249.646 343.074 248.113 339.366 246.794Z" fill="#33160D"/>
<path d="M377.865 267.83C374.219 264.623 357.98 252.322 353.455 256.834C352.27 258.016 351.947 259.974 352.691 261.473C353.315 262.731 354.534 263.565 355.702 264.344C360.321 267.421 364.94 270.498 369.56 273.575C370.862 274.443 372.205 275.328 373.734 275.66C378.375 276.669 381.525 271.05 377.865 267.83Z" fill="#33160D"/>
<path d="M345.257 274.505C344.513 273.024 343.345 271.792 342.196 270.586C339.44 267.695 331.94 256.734 327.58 257.155C324.104 257.491 324.215 264.087 326.313 266.273C329.504 270.882 334.537 274.489 338.26 278.689C341.365 282.193 345.79 280.969 345.977 277.473C346.023 276.61 345.811 275.609 345.257 274.505Z" fill="#33160D"/>
<path d="M354.156 283.574C350.02 279.266 343.318 285.686 347.461 290.001C351.596 294.309 358.298 287.889 354.156 283.574Z" fill="#33160D"/>
<path d="M320.624 271.979C317.931 269.004 312.985 272.635 314.935 276.131C316.676 279.251 318.184 282.522 319.917 285.666C321.509 288.554 323.001 291.225 322.925 294.614C322.799 300.227 331.127 300.302 331.572 294.791C332.225 286.692 325.81 277.706 320.624 271.979Z" fill="#33160D"/>
<path d="M61.5357 190.237C59.9827 188.959 58.3097 187.941 56.5677 186.947C53.3367 185.103 49.4777 190.068 52.0647 192.743C53.4597 194.186 54.8627 195.551 56.4807 196.745C57.8507 197.756 59.4527 198.487 60.8147 199.316C64.9507 201.833 68.8207 196.814 65.3947 193.421C64.2207 192.258 62.8127 191.288 61.5357 190.237Z" fill="#33160D"/>
<path d="M41.9888 186.158C43.5568 186.812 45.3428 187.243 46.9408 186.665C49.4258 185.767 49.9358 182.395 48.1448 180.584C46.9418 179.368 44.7008 178.277 43.0948 177.79C39.7918 176.788 36.1588 179.595 38.0808 183.092C38.8938 184.571 40.4308 185.508 41.9888 186.158Z" fill="#33160D"/>
<path d="M55.5229 204.112C50.1749 204.783 51.2089 213.096 56.5659 212.424C61.9139 211.753 60.8799 203.44 55.5229 204.112Z" fill="#33160D"/>
<path d="M28.9168 201.405C31.8378 203.143 34.8478 204.323 38.0518 205.432C40.9448 206.434 43.6788 207.928 46.8198 207.517C49.5868 207.156 50.8488 203.175 48.5468 201.442C48.0588 201.074 47.4948 200.841 46.9108 200.649C46.5148 200.519 46.1088 200.407 45.7128 200.284C41.1818 198.886 36.8578 195.406 32.0838 194.871C28.6868 194.492 25.2248 199.209 28.9168 201.405Z" fill="#33160D"/>
<path d="M17.7668 199.646C18.5648 199.944 19.3328 200.359 20.1768 200.478C21.4248 200.653 22.7488 200.103 23.5058 199.095C24.4848 197.791 24.3868 195.854 23.4788 194.536C23.1318 193.533 22.4348 192.659 21.4008 192.342C18.4928 191.448 14.5928 188.848 11.8428 191.454C10.3708 192.85 10.1398 195.405 11.4348 196.966C12.9208 198.759 15.5848 198.831 17.7668 199.646Z" fill="#33160D"/>
<path d="M32.5737 223.884C36.8737 223.294 35.9927 215.805 31.9487 214.922C23.6847 213.117 14.7387 213.218 6.62174 210.507C3.20774 209.367 -0.0292588 215.124 3.76174 217.632C7.93074 220.39 12.7907 220.607 17.3177 221.753C22.4827 223.061 27.3827 224.596 32.5737 223.884Z" fill="#33160D"/>
<path d="M43.3828 218.139C41.3258 218.216 39.7368 220.342 39.7498 222.259C39.7628 224.225 41.1918 226.272 43.3028 226.45C44.8168 226.578 45.2488 226.776 46.6378 227.236C47.6278 227.564 48.5978 227.864 49.5888 228.044C50.7128 228.651 52.0968 228.774 53.2938 228.278C55.1708 227.5 55.9108 225.7 55.8978 223.791C55.8958 223.583 55.8948 223.375 55.8938 223.168C55.8838 221.752 54.5458 220.029 53.2098 219.606C50.1518 218.635 46.5948 218.018 43.3828 218.139Z" fill="#33160D"/>
<path d="M53.8178 235.966C45.3418 235.362 36.6288 234.744 28.2688 236.813C22.3128 238.287 23.3628 246.145 29.4448 246.181C37.7558 246.229 45.5498 245.126 53.7398 244.066C58.1748 243.49 58.5358 236.302 53.8178 235.966Z" fill="#33160D"/>
<path d="M17.3828 239.804L17.3008 239.729C16.7808 239.256 15.9418 238.991 15.2678 238.863C14.3248 238.684 13.3078 238.963 12.4998 239.431C11.0738 240.255 10.0628 241.992 10.3528 243.686C10.6078 245.175 11.5278 246.52 12.9448 247.126C14.5938 247.832 17.0198 247.385 18.0628 245.801L18.1238 245.709C18.7198 244.805 19.1678 243.72 18.9758 242.603C18.7788 241.454 18.2458 240.589 17.3828 239.804Z" fill="#33160D"/>
<path d="M120.758 17.8108C120.035 16.6828 118.954 16.3108 117.787 16.3848C115.817 16.5088 113.6 17.8988 112.431 19.0638C110.609 20.8788 109.383 23.1898 107.914 25.2998C106.647 27.1188 105.149 28.8868 104.679 31.0538C104.21 33.2198 105.271 35.9308 107.454 36.3178C110.325 36.8268 111.713 33.6768 113.152 31.8368C115.113 29.3288 117.567 27.2528 119.545 24.7568C120.883 23.0688 122.046 19.8198 120.758 17.8108Z" fill="#33160D"/>
<path d="M146.874 27.6988C146.92 25.7608 145.733 23.7398 143.868 23.2088C142.619 22.8538 141.375 23.1718 140.178 23.7778C138.406 24.6738 136.736 26.1998 135.301 27.0958C132.105 29.0918 128.815 30.9298 125.557 32.8208C122.4 34.6538 116.247 37.3378 115.501 41.3488C114.789 45.1738 118.54 46.4198 121.377 45.0418C127.453 42.0898 133.484 39.0458 139.468 35.9108C141.185 35.0108 142.921 34.0878 144.335 32.7618C145.75 31.4358 146.828 29.6368 146.874 27.6988Z" fill="#33160D"/>
<path d="M134.052 48.6188C132.535 48.8358 131.424 49.5478 130.092 49.8928C128.553 50.2908 127.041 50.6498 125.612 51.4828C122.325 53.3988 123.617 59.6868 127.425 58.7258C131.168 57.7818 135.47 58.2418 137.54 53.6338C138.78 50.8738 136.276 48.3008 134.052 48.6188Z" fill="#33160D"/>
<path d="M173.543 40.2898C168.313 38.7968 163.134 41.2668 158.102 42.6328C155.593 43.3138 153.051 43.8588 150.573 44.6518C148.519 45.3088 146.663 46.6058 144.598 47.1128C141.415 47.8938 141.275 53.1958 144.672 53.7678C148.663 54.4388 153.221 52.7068 157.168 51.9898C162.435 51.0318 168.692 50.2478 173.631 48.2648C177.283 46.7978 177.726 41.4828 173.543 40.2898Z" fill="#33160D"/>
<path d="M124.803 14.7048C126.387 15.2668 128.127 14.9118 129.315 13.6758C129.412 13.5788 129.448 13.5378 129.456 13.5228C129.582 13.4188 129.709 13.3138 129.836 13.2098C130.24 12.7778 130.532 12.2368 130.85 11.7388C130.92 11.6298 131.271 11.1378 131.226 11.1798C131.376 10.9908 131.525 10.8008 131.674 10.6108C132.156 9.99677 132.628 9.38077 133.151 8.80077C133.425 8.49677 134.932 7.17377 133.844 8.02377C135.683 6.58577 136.529 4.17277 135.194 2.05777C133.934 0.0607749 131.221 -0.524227 129.228 0.707773C127.634 1.69277 126.082 3.09177 124.868 4.52077C123.366 6.28677 121.642 8.54777 122.069 11.0108C122.36 12.6888 123.082 14.0948 124.803 14.7048Z" fill="#33160D"/>
<path d="M150.734 24.0148C151.833 24.8538 153.345 25.0708 154.679 24.7058C156.059 24.3288 157.213 23.4038 158.493 22.7658C159.501 22.2638 160.615 21.9258 161.466 21.1878C164.579 18.4858 162.255 14.9078 159.125 14.1878C158.319 14.0028 157.46 14.0068 156.626 14.2638C154.957 14.7788 153.532 15.8628 152.146 16.9268C150.951 17.8448 149.677 18.8788 149.335 20.3468C149.021 21.6948 149.635 23.1758 150.734 24.0148Z" fill="#33160D"/>
<path d="M110.89 2.77677C110.748 1.52677 109.994 0.719774 109.016 0.313774C107.474 -0.326226 105.373 0.030772 104.228 1.22077C103.301 2.18477 102.727 3.42577 102.169 4.64077C99.6797 10.0638 97.1907 15.4878 94.7017 20.9108C94.3987 21.5718 94.0897 22.2568 94.0777 22.9838C94.0487 24.7318 96.1367 26.1368 97.7447 25.4518C98.6807 25.0538 99.2977 24.1638 99.8627 23.3188C103.558 17.7938 107.27 12.2408 110.049 6.20277C110.547 5.12077 111.025 3.96077 110.89 2.77677Z" fill="#33160D"/>
<path d="M339.51 118.112C318.669 114.136 296.3 117.662 275.49 120.774C264.574 122.406 253.705 124.421 242.921 126.94C237.626 128.177 232.307 129.402 227.059 130.873C224.607 131.56 222.163 132.312 219.773 133.236C218.033 133.908 215.805 135.591 213.957 135.416C210.719 135.737 208.239 140.97 211.878 143.036C215.384 145.027 218.206 143.51 221.818 142.571C226.803 141.275 231.957 140.67 237.003 139.744C248.207 137.687 259.462 135.853 270.738 134.388C281.754 132.958 292.832 131.996 303.905 131.389C314.361 130.816 325.211 130.403 335.555 132.376C344.037 135.036 347.793 119.692 339.51 118.112Z" fill="#33160D"/>
<path d="M156.124 162.204C153.701 159.943 149.905 160.075 147.644 162.498C141.664 168.906 145.122 181.108 149.906 197.996C153.505 210.697 158.943 229.891 154.458 234.698C152.197 237.121 152.328 240.918 154.752 243.177C156.007 244.348 157.63 244.877 159.217 244.779C160.695 244.688 162.142 244.052 163.232 242.884C172.333 233.131 166.801 213.606 161.451 194.724C159.216 186.833 155.493 173.696 156.627 170.446C158.668 168.019 158.47 164.392 156.124 162.204Z" fill="#33160D"/>
<path d="M196.511 169.205C198.093 165.289 199.01 161.079 198.923 156.887C198.747 148.481 195.579 141.364 189.76 136.306C184.179 131.455 176.681 128.986 168.077 129.165C155.51 129.422 144.593 134.217 136.504 143.014C127.955 152.311 123.124 165.714 123.897 177.992C124.105 181.297 126.951 183.808 130.256 183.603C130.258 183.603 130.26 183.603 130.262 183.603C133.569 183.395 136.081 180.545 135.873 177.238C135.443 170.412 137.664 159.481 145.336 151.137C151.243 144.713 158.981 141.359 168.327 141.163C173.903 141.046 178.592 142.499 181.887 145.363C185.08 148.138 186.822 152.21 186.925 157.138C187.013 161.36 185.289 165.741 182.987 169.274C168.996 170.674 165.884 173.933 164.731 177.294C163.711 180.27 164.686 183.443 167.34 185.783C170.948 188.964 175.918 189.444 180.974 187.096C183.761 185.803 186.591 183.624 189.156 180.843C204.552 180.265 221.406 189.733 222.799 212.235C223.743 227.48 217.898 242.79 206.34 255.346C191.461 271.509 168.596 281.452 145.186 281.94C124.48 282.373 107.281 277.225 95.4467 267.055C85.3707 258.395 79.6717 246.486 79.4007 233.521C79.0777 218.073 89.6167 206.184 103.937 205.898C110.092 205.769 115.72 207.568 119.786 210.963C124.054 214.528 126.379 219.72 126.509 225.979C126.548 227.826 125.956 229.81 124.925 231.287C124.166 232.376 123.366 232.86 122.937 232.891C119.655 232.978 116.994 235.702 117.063 239.015C117.132 242.329 119.874 244.958 123.187 244.889C127.646 244.793 131.845 242.341 134.767 238.154C137.235 234.617 138.599 230.087 138.507 225.728C138.302 215.899 134.488 207.609 127.478 201.754C121.189 196.501 112.739 193.712 103.687 193.901C82.5347 194.346 66.9377 211.484 67.4037 233.773C67.7467 250.191 74.9277 265.243 87.6257 276.155C101.738 288.284 121.729 294.432 145.438 293.937C146.854 293.907 148.264 293.849 149.67 293.762C175.092 292.187 198.775 281.283 215.171 263.472C228.962 248.49 235.926 230.03 234.778 211.493C233.183 185.749 215.531 171.657 196.511 169.205Z" fill="#33160D"/>
<path d="M360.083 169.54C357.717 167.218 353.918 167.254 351.598 169.618C349.277 171.983 349.311 175.782 351.676 178.103C356.493 182.832 358.389 189.147 356.507 194.192C353.996 200.92 345.118 205.239 332.149 206.042C330.712 206.131 329.295 206.232 327.897 206.344C326.145 195.2 321.474 184.599 312.821 176.954C311.48 175.769 309.678 175.244 307.91 175.525C306.142 175.805 304.591 176.86 303.681 178.401C300.385 183.984 297.563 188.525 293.759 191.905C289.996 195.249 285.573 196.833 281.928 196.132C278.35 195.447 274.993 192.259 273.761 188.378C272.501 184.406 273.229 179.578 275.662 175.776C278.004 172.116 282.108 169.573 286.924 168.801C291.697 168.039 296.343 169.148 299.667 171.855C302.235 173.948 306.015 173.561 308.108 170.992C310.2 168.423 309.815 164.643 307.245 162.551C301.273 157.687 293.188 155.645 285.023 156.953C276.834 158.267 269.737 162.77 265.553 169.309C263.284 172.855 261.876 176.851 261.368 180.907C261.206 181.425 261.108 181.971 261.093 182.541L261.041 184.824C260.919 190.531 260.549 207.899 255.963 208.253C255.854 208.267 255.558 208.287 254.983 207.716C254.038 206.781 249.397 201.031 250.825 179.571C251.045 176.264 248.542 173.406 245.236 173.186C241.922 172.963 239.07 175.468 238.851 178.774C237.632 197.103 240.291 210.061 246.543 216.245C249.377 219.05 252.975 220.46 256.694 220.23C256.758 220.226 256.824 220.221 256.888 220.216C265.541 219.548 269.482 212.569 271.323 204.329C273.833 206.096 276.67 207.344 279.671 207.919C287.063 209.335 295.102 206.766 301.73 200.875C304.911 198.048 307.507 194.733 309.713 191.453C312.915 196.13 314.932 201.732 315.939 207.662C298.457 210.152 284.729 214.823 275.005 221.605C263.854 229.381 258.109 240.055 258.827 251.661C259.7 265.765 271.802 274.904 288.257 273.885C304.413 272.885 318.071 260.604 324.792 241.035C327.137 234.209 328.571 226.344 328.706 218.32C330.08 218.207 331.474 218.108 332.891 218.02C357.414 216.502 365.258 205.068 367.75 198.388C371.341 188.763 368.403 177.709 360.083 169.54ZM313.443 237.137C308.352 251.957 298.659 261.218 287.515 261.908C277.814 262.509 271.255 258.196 270.804 250.92C269.844 235.408 286.705 224.163 316.664 219.692C316.415 225.767 315.283 231.778 313.443 237.137Z" fill="#33160D"/>
<path d="M240.153 168.578C241.48 169.72 243.137 170.39 244.885 170.521C245.132 170.542 245.38 170.553 245.63 170.551C245.744 170.55 245.859 170.546 245.972 170.539C246.094 170.531 246.214 170.521 246.335 170.506C246.517 170.488 246.699 170.465 246.882 170.436C249.331 170.046 251.451 168.641 252.699 166.58C253.951 164.51 254.209 161.97 253.405 159.612C252.601 157.255 250.847 155.403 248.592 154.53C246.324 153.653 243.772 153.848 241.587 155.064C239.402 156.28 237.892 158.345 237.442 160.732C237.031 162.92 237.549 165.178 238.866 167.022C239.193 167.595 239.624 168.122 240.153 168.578Z" fill="#33160D"/>
</svg>
