<svg xmlns="http://www.w3.org/2000/svg" viewBox="0 0 88.79 87.09"><defs><style>.cls-1{isolation:isolate;}.cls-2{mix-blend-mode:multiply;}.cls-3{fill:#606161;}</style></defs><g class="cls-1"><g id="Layer_1" data-name="Layer 1"><g class="cls-2"><path class="cls-3" d="M294.29,354.9l-.06-.08S294.23,354.87,294.29,354.9Z" transform="translate(-261.66 -352.18)"/><path class="cls-3" d="M276.34,361.19v0Z" transform="translate(-261.66 -352.18)"/><polygon class="cls-3" points="29.82 0.01 29.82 0.01 29.85 0 29.82 0.01"/><path class="cls-3" d="M295.82,353.21a7,7,0,0,0-2.51-.91,7.53,7.53,0,0,0-1.83-.1c-.28.24-.77,0-1.09.23l-.13-.13a.34.34,0,0,1-.35.08v0c-.15.12-.35.08-.42.14v0l-.2,0,0-.06a1.72,1.72,0,0,1-.83.22l.06.16c-.59-.08-.69.33-1.23.23v0c-.46.61-1.05,0-1.5.64.06-.08-.06-.07-.07-.11-.26.15-.54.29-.41.6-.19.08-.2,0-.27-.13.06.13-.08.26-.23.33l.05-.08-.41.23.2.21c-.26,0-.2-.27-.38-.11l.1.2c-.32.11-.65-.11-1-.11-1.27.55-2.23,1.78-3.49,2.08l-.14-.11c-.15-.2-.1.48-.26.32l-.07.17c-.05,0-.15,0-.12-.1-.12.06-.1.09-.14.21l-.2-.06c-.52.17-.75.66-1.26.89a4.89,4.89,0,0,0-2.17,1.55c-.65.86-2.2.76-2.8,1.76-.05,0-.07.11-.06.13l-.78.59a6.44,6.44,0,0,0-1.31,1.43c-.37.7-.2,1.17,1.73.76l0,.05c.46-.23.72-.41.82-.84.25.22.34-.24.5-.23v0c.08-.39.62-.22.72-.58,0,0,.06.1,0,.15.14-.17.34-.4.46-.26.39-.34,1-.68,1.14-1.12v0c0-.27.18-.16.3-.36l0,0c.06-.28.49-.36.58-.52l.08.1.34-.25-.15.06c-.14-.32.38,0,.52-.34.26-.11.1-.92.44-.93,0-.21,0,.29.15.08.1.15,0,.14.1.24.13-.18.38,0,.54-.26l.08.12c.15-.39.63-.16.69-.49.24-.28.42.24.58-.18l.22.09c.15-.05,0-.26.17-.26s.23,0,.21.12c.42,0,.53-.63,1.12-.61,0-.26.26-.27.24-.46.07.08.45-.24.32.1,0,0-.06,0-.07,0l0,.13c.37.09.37-.38.64-.48-.1,0-.19.06-.17,0l.23-.12v.13l.37-.13-.11-.1c.2,0,.38.17.46-.12,0-.14-.25-.08-.09-.22a6,6,0,0,0,1-.17c-.1-.14,0-.17,0-.24l.08.13c.21-.33.24.22.47-.06l0,.1,0-.31c.16-.37.27.21.41-.28-.11.08-.18-.26,0-.27l0,.14c.07-.06.08-.12.14-.12a.11.11,0,0,0,.17.12l0,.19.13-.33c.24.07.45-.21.59-.06s.41-.06.43-.28c0,.15.19.13.18.3.05-.18.31-.39.47-.28v0c.47,0,.68-.43,1.12-.31,0-.16.17-.11.08-.3.39-.3.81.29.88-.36.19-.06.24.12.35.15l0,0a2,2,0,0,1,.72-.08c.13-.07.15-.37.4-.31-.08.13,0,.1.11.11s-.08.06,0,.15a.29.29,0,0,1,.07-.08s0,0,0,0c.15,0,.13-.07.06-.09s0,0,0-.08c.15.17.44,0,.44.23.45,0,.79-.15,1.19-.18,0,.11-.08.19-.2.21h.27c0,.15-.16,0-.25.07.25.29.69-.08,1,.22l.11-.1v0a.23.23,0,0,1,.19-.13c0,.14-.09.29.1.34s.45.07.66.06c-.1,0,0-.12,0-.15s.11.17.2.14l0,.17c0-.17.3-.1.36-.16,0,.15-.18.07-.24.16l.58.14c.24-.06,0-.17.16-.29s.4-.05.57.12l0-.18a.77.77,0,0,1,.75.29c2.88-.5,1-1.55,1-1.55C297.67,353.15,297,353.44,295.82,353.21Z" transform="translate(-261.66 -352.18)"/><path class="cls-3" d="M265.07,374.59l-.14.21S265,374.76,265.07,374.59Z" transform="translate(-261.66 -352.18)"/><path class="cls-3" d="M304.21,369.45v0Z" transform="translate(-261.66 -352.18)"/><path class="cls-3" d="M262.61,384.55h0l0-.07Z" transform="translate(-261.66 -352.18)"/><path class="cls-3" d="M264.31,370.94c-.73,1.59-1.22,2.61-1.64,3.69a13.23,13.23,0,0,0-.94,4.18,11.13,11.13,0,0,0,.87,5.73,8.4,8.4,0,0,1,.87,1.44,6.78,6.78,0,0,0,1.11,1.4l.16.39a3.38,3.38,0,0,1,.81.79l-.05,0c.47.27.88.7,1.11.83l0,0c.16.13.35.23.52.35H267c.41.21.79.46,1.18.68s.77.43,1.12.65v-.18c1.49.9,2.2.8,3.62,1.43l0,0c2,.07,3,1,5,.65-.26,0,.1.09.08.13.92,0,1.91-.1,1.9-.41.66,0,.55.06.64.18,0-.15.56-.25,1.07-.32a1.57,1.57,0,0,1-.23.09c.49-.08,1-.19,1.47-.29l-.34-.21c.79-.06.26.29,1,.05l-.06-.21c1.06-.2,1.76-.09,2.82-.31a23.44,23.44,0,0,0,5.82-3.25c1.78-1.32,3.4-2.72,5-3.94h.24c.23.12.55-1,.81-1l.25-.41c.13-.06.36-.22.23,0a1.68,1.68,0,0,0,.45-.61l.43-.22a27.21,27.21,0,0,0,3.1-3.91,12.3,12.3,0,0,0,2.24-3.7,19,19,0,0,0,1.05-4.33c.14-1.66.49-3.4.58-5.26a11.67,11.67,0,0,0-.18-2.82,6.4,6.4,0,0,0-1.14-2.63c0-.12-.25-.34-.28-.32a12.58,12.58,0,0,0-2.07-2.51,13.37,13.37,0,0,0-1.74-1.41,18.52,18.52,0,0,0-3.45-1.88c-1.08-.43-1.87-.6-1.82-.27s1,1.13,3,3h-.09a27.22,27.22,0,0,0,2.94,2.12c-.11.35.86.92,1,1.29h-.05a2.55,2.55,0,0,1,.8,1.14,6.93,6.93,0,0,0,.54,1.2.25.25,0,0,1-.2-.19c.28.54.51,1.41.33,1.48a42.6,42.6,0,0,1,.34,4.77l0-.07c.14.61-.06.76-.07,1.43,0,0,0,.07-.06.06a10,10,0,0,1-.42,2.38h-.13c-.11.41-.23.82-.36,1.22l.18-.44c.28.28-.51.83-.69,1.75-.39.74-.17,1.92-.83,2.62-.11.46,0-.47-.27.15-.16-.09.07-.32-.14-.26-.28.58-.74.75-1.12,1.45l-.14-.06c-.43,1-1.37,1.38-1.65,2.05-.64.86-.79.23-1.37,1.23l-.44.17c-.36.31-.07.41-.52.71-.06-.11-.55.39-.41.09-1,.68-1.59,1.85-3,2.58-.11.4-.83.76-.92,1.05-.09-.05-1.3.89-.71.21.06-.06.17-.14.18-.1v-.17c-.87.29-1.23,1-2,1.45.25-.1.53-.29.39-.09l-.7.41.08-.19-1.08.53.22.05c-.56.2-.84.09-1.35.55-.23.23.59-.06,0,.24-.75.26-1.89.56-2.84.81.13.13-.12.2-.37.32l-.08-.13c-.94.44-.44-.2-1.38.18l.07-.11-.21.33c-.88.42-.53-.17-1.51.31.4-.06.23.29-.29.28l.11-.15a2.58,2.58,0,0,1-.56.11c.17-.1.08-.19-.33-.17l.27-.17-.78.27c-.6-.11-1.57,0-1.8-.2l-.68-.09a2.07,2.07,0,0,0-.93,0c.28-.09-.42-.26-.19-.38a2.77,2.77,0,0,1-1.69-.24h.07c-1.36-.49-2.44-.54-3.53-1.27,0,.18-.58-.23-.53,0-1.34-.47-1.77-1.68-2.54-1.5-.51-.37-.42-.62-.61-.86l.12.08a7.75,7.75,0,0,1-1.43-1.77c-.24-.34-.54-.26-.83-1,.21.17.06-.1,0-.36.08.16.14.19.09-.17a.5.5,0,0,1-.15-.17s0,0,0,0c-.17-.44-.18-.35-.14-.14,0,0,0,0-.05.1,0-.51-.33-1.32-.13-1.42a13.72,13.72,0,0,1-.26-3.67c.12-.12.17.18.16.54,0-.29.05-.58.1-.86.15,0,0,.5,0,.77.38-1,.15-2.14.75-3.25l0-.28,0-.07c-.07,0-.05-.3,0-.48s.28.11.49-.46a9.18,9.18,0,0,0,.64-1.92c-.16.3-.19.17-.17,0s.31-.4.36-.64l.18.05c-.21,0,.17-.81.15-.94.19-.11-.1.48,0,.59.51-1.12.25-.57.79-1.66.19-.64-.21,0-.2-.33a5.54,5.54,0,0,1,.88-1.58l-.24.09a4.65,4.65,0,0,1,1.54-1.94,15.53,15.53,0,0,1,2.56-2.91c.43-.46.31-.59,0-.61a4.41,4.41,0,0,0-1.51.45c-.25.12-.47.25-.64.35l-.25.17a9.29,9.29,0,0,0-3.14,3.44A41,41,0,0,0,264.31,370.94Z" transform="translate(-261.66 -352.18)"/><path class="cls-3" d="M267.78,377.11l.14,0S267.86,377.05,267.78,377.11Z" transform="translate(-261.66 -352.18)"/><path class="cls-3" d="M294.66,361.86l0,0Z" transform="translate(-261.66 -352.18)"/><path class="cls-3" d="M272.85,376h0l0,0Z" transform="translate(-261.66 -352.18)"/><path class="cls-3" d="M268.08,379.61c1.21-1,1.72-1,2.91-2.15.63-.45,1.25-1,1.86-1.48.15-.41.82-.57,1.06-1l.22,0a.53.53,0,0,1,.37-.3v0c.13-.21.38-.29.44-.4l0,0,.21-.16v.07a2.57,2.57,0,0,1,.93-.66l-.11-.13c.73-.24.8-.67,1.5-.84v0c.52-.82,1.33-.43,1.9-1.24-.07.1.09,0,.1.09.33-.24.7-.48.55-.77.27-.14.27,0,.36.06-.07-.12.13-.3.33-.42l-.07.1.57-.37L281,370c.35-.1.24.25.51,0l-.11-.19c.46-.2.87,0,1.37-.13,1.8-.88,3.41-2.39,5.24-2.87l.15.11c.14.2.29-.55.45-.38l.15-.19c.07,0,.21,0,.13.09.19-.08.17-.11.27-.24l.26,0c.75-.23,1.22-.78,2-1.05a13.49,13.49,0,0,0,3.56-1.57c1.31-.85,3.23-.38,4.59-1.09.05,0,.16-.08.15-.1.46-.09.91-.15,1.37-.21,0,0,.34,0,1.05-.19a2.73,2.73,0,0,0,1.26-.67,1.76,1.76,0,0,0,.48-.88,1.67,1.67,0,0,0-.05-.84,1.26,1.26,0,0,0-1-.92c-.4,0-.45.17-.39.29s.34.33.28.64a.59.59,0,0,1-.21.4.17.17,0,0,1-.17,0c-.07-.05-.15,0-.23-.06l0-.05a2.65,2.65,0,0,0-1.38.4c-.14-.31-.66.07-.86,0v0c-.43.35-1,0-1.45.32,0,0,0-.12.11-.15-.33.12-.77.31-.84.13a6,6,0,0,0-2.32.95l0-.07c-.22.29-.36.14-.64.36,0,0,0,0,0,0-.24.31-.89.34-1.1.52l-.06-.11-.59.26.23-.06c.05.36-.53,0-.88.35-.42.13-.54,1-1,1-.13.23.07-.32-.18-.08-.08-.16.09-.16,0-.26-.25.2-.55,0-.85.31l-.08-.13c-.35.45-1,.24-1.15.6-.42.34-.5-.22-.87.27l-.27-.08c-.23.07-.05.28-.32.31,0-.11-.34.06-.25-.11-.61.1-.94.78-1.77.85,0,.28-.45.34-.48.56-.06-.08-.69.35-.41-.06,0,0,.09-.06.1,0l0-.15c-.51,0-.64.5-1,.67.13,0,.27-.11.22,0l-.36.18v-.15l-.56.23.15.09c-.3.07-.5-.1-.7.24-.07.17.34,0,.09.23a10.06,10.06,0,0,0-1.43.45c.12.12,0,.18-.11.28l-.08-.12c-.37.43-.32-.18-.71.21v-.11l0,.33c-.28.48-.37-.13-.64.46.17-.12.23.23,0,.3V369c-.11.09-.12.16-.22.18s-.06-.19-.23-.07l0-.22-.22.42c-.34,0-.67.42-.88.31,0,0-.62.25-.64.51,0-.18-.29,0-.28-.23-.07.22-.45.58-.7.55l0,0c-.73.25-1,.85-1.66,1,.11.12-.24.23-.05.37-.48.53-1.3.32-1.16,1-.25.2-.4.08-.55.14l0-.07a9.5,9.5,0,0,1-1,.72c-.14.17,0,.43-.36.61,0-.18-.09-.06-.21,0,.07-.07.07-.12-.14-.07a.25.25,0,0,1,0,.12s0,0,0,0c-.18.18-.12.19,0,.13a.08.08,0,0,0,.08,0c-.3,0-.57.43-.72.28a17.67,17.67,0,0,0-1.29,1.42c-.12,0-.07-.2.05-.35l-.32.31c-.09-.12.14-.23.23-.34-.56.15-.69.87-1.29,1.1l0,.18h0c0,.05,0,.21-.06.28s-.2-.23-.42,0-.47.51-.65.78c.14-.1.15,0,.13.08s-.26.07-.31.19l-.13-.12c.16.08-.16.4-.15.5-.16,0,.09-.25.05-.35-.43.44-.22.21-.64.66-.13.33.17.08.17.3-.17.23-.28.52-.58.68l.19,0a1.76,1.76,0,0,1-.86.87c-.78,1.94-.5,2.36-.12,2.31a2.38,2.38,0,0,0,1-.54C266.71,381.81,266.87,380.94,268.08,379.61Z" transform="translate(-261.66 -352.18)"/><path class="cls-3" d="M317,381.1l-.08.14S317,381.21,317,381.1Z" transform="translate(-261.66 -352.18)"/><path class="cls-3" d="M332.77,413.92h0Z" transform="translate(-261.66 -352.18)"/><path class="cls-3" d="M315.13,387.32h0l0,0Z" transform="translate(-261.66 -352.18)"/><path class="cls-3" d="M315.2,378.92c-.24,1.1-.41,1.81-.51,2.52a8.71,8.71,0,0,0,0,2.6,20.44,20.44,0,0,0,.47,3.27c.32.45.26,1.36.58,1.88l-.08.24a1,1,0,0,1,.18.61h0c.16.26.18.6.27.73h0l.1.35-.07-.05a5.53,5.53,0,0,1,.44,1.46l.15-.08c.08,1,.51,1.28.55,2.21h0c.75,1,.25,1.82,1,2.81-.1-.12-.06.09-.11.09.22.5.44,1,.75.94.13.37,0,.33-.09.42.13-.05.31.26.42.54l-.1-.11.36.81.19-.26c.09.46-.27.23-.05.62l.21-.08a9.92,9.92,0,0,1,.11,1.74c.9,2.47,2.63,4.77,3.74,7l-.07.19c-.17.19.7.35.58.56l.27.17c0,.09.08.25-.05.17a.75.75,0,0,0,.38.3l.07.33a13.55,13.55,0,0,0,2.33,2.12,6.43,6.43,0,0,0,2.18,1.6,10.63,10.63,0,0,0,2.67.88c1.06.13,2.14.48,3.34.62a5.49,5.49,0,0,0,3.45-.56c.08,0,.23-.14.21-.16a9.93,9.93,0,0,0,1.84-.93,6.63,6.63,0,0,0,1.13-.9,6.22,6.22,0,0,0,1.48-2.17c.28-.74.26-1.3,0-1.27s-.85.66-2.21,1.49v-.07a7.24,7.24,0,0,0-1.51,1.43c-.25-.21-.65.36-.9.35v0c-.4.49-1.11.24-1.55.59a.17.17,0,0,1,.12-.16c-.36.14-.86.31-.92.12-.88.22-2.13,0-2.77.21l0-.05c-.38.15-.44,0-.84,0l0-.06c-.42.1-1.06-.3-1.38-.35l0-.13a6.22,6.22,0,0,1-.71-.29l.25.15c-.25.27-.43-.44-1-.52-.41-.29-1.31,0-1.66-.45-.32,0,.35-.07-.05-.2.1-.16.22,0,.22-.16-.35-.17-.37-.53-.8-.75l.08-.12c-.64-.23-.71-.93-1.16-1.06-.51-.4,0-.6-.6-.93v-.32c-.15-.24-.32,0-.43-.32.11-.06-.15-.38.05-.3-.25-.67-1-1-1.24-2-.31,0-.42-.54-.65-.59.08-.07-.43-.86,0-.49,0,0,.07.11,0,.12h.16c0-.59-.58-.8-.78-1.31,0,.17.13.35,0,.27l-.2-.46.15,0-.25-.71-.09.16c-.08-.37.09-.58-.26-.88-.18-.13,0,.4-.24.06-.11-.5-.25-1.24-.44-1.84-.13.12-.19,0-.29-.19l.13-.07c-.43-.55.2-.34-.18-.91l.11,0-.34-.05c-.48-.47.16-.41-.43-.9.11.24-.25.22-.31-.1l.16,0c-.09-.16-.16-.2-.17-.32.1.07.2,0,.09-.26l.22.11-.4-.38c0-.42-.36-.93-.23-1.15,0,0-.16-.81-.42-.93.17.12.08-.33.27-.25a1.35,1.35,0,0,1-.43-1l0,0c-.11-.94-.66-1.48-.69-2.34-.14.08-.17-.38-.35-.22-.42-.79,0-1.64-.67-1.8-.13-.38,0-.49,0-.7l.05.09a8.9,8.9,0,0,1-.35-1.47c-.12-.25-.43-.24-.44-.74.14.14.09-.05.06-.23,0,.11.09.14.13-.11a.38.38,0,0,1-.1-.12s0,0,0,0c-.1-.3-.12-.24-.12-.1s0,0-.06.06c.09-.33-.13-.87.06-.94-.16-.89-.42-1.53-.53-2.29.1-.09.2.09.26.3a4.52,4.52,0,0,1-.06-.53c.15,0,.09.3.13.47.22-.64-.28-1.31,0-2.05l-.11-.16,0-.05c-.07,0-.14-.17-.15-.28.15-.1.31,0,.34-.33a3.15,3.15,0,0,0,0-1.2c-.05.2-.12.12-.15,0s.19-.25.16-.4l.18,0c-.18,0-.07-.5-.12-.59.15-.06,0,.31.13.37a7.61,7.61,0,0,1,.28-1c0-.41-.19,0-.28-.21a2.38,2.38,0,0,1,.37-1l-.2,0a2,2,0,0,1,.81-1.26,15.21,15.21,0,0,1,.6-1.43,4.7,4.7,0,0,0,.37-.84c.13-.41,0-.52-.24-.52a2.61,2.61,0,0,0-.9.39,2.76,2.76,0,0,0-.37.27l-.14.13a5.5,5.5,0,0,0-1.71,2.44A18.45,18.45,0,0,0,315.2,378.92Z" transform="translate(-261.66 -352.18)"/><path class="cls-3" d="M345.92,403.11l.13-.12S346,403,345.92,403.11Z" transform="translate(-261.66 -352.18)"/><path class="cls-3" d="M327.86,372.09h0S327.85,372.1,327.86,372.09Z" transform="translate(-261.66 -352.18)"/><path class="cls-3" d="M350.19,397.57h0v0Z" transform="translate(-261.66 -352.18)"/><path class="cls-3" d="M346.76,405.89c1.19-2,1.77-2.43,2.55-4.79a17.28,17.28,0,0,0,.88-3.52c-.13-.58.23-1.52.07-2.2l.15-.24a1.3,1.3,0,0,1,0-.73l0,0a8.53,8.53,0,0,1-.1-.89l0,0c0-.14,0-.28,0-.41l.06.06a8.81,8.81,0,0,1-.22-1.71l-.16.07c0-1.16-.4-1.49-.44-2.53h0c-.76-1.1-.3-2.06-1.24-3.13.11.13.05-.1.09-.1-.29-.54-.63-1.1-.92-1-.2-.39-.09-.36,0-.47-.13.07-.37-.23-.55-.52l.13.11c-.18-.28-.39-.54-.58-.81l-.12.31c-.22-.47.2-.29-.13-.67l-.18.14c-.39-.6-.37-1.15-.72-1.79a14.94,14.94,0,0,0-3.4-2.9,41.29,41.29,0,0,1-3.48-2.36l0-.21c.09-.23-.8-.05-.77-.3l-.32-.05c-.05-.08-.18-.21,0-.18a.91.91,0,0,0-.48-.16l-.18-.28c-.9-.65-1.86-.85-2.84-1.48a11.29,11.29,0,0,0-2.31-1.43,23.74,23.74,0,0,0-2.62-1.14c-1.07-.31-2.11-.9-3.27-1.35a6,6,0,0,0-3.76-.41.43.43,0,0,0-.28.12,6.26,6.26,0,0,0-2.24.79l-.4.28a4.87,4.87,0,0,0-.87.82,6.88,6.88,0,0,0-.83,1.24,12.43,12.43,0,0,0-.46,1.16c-.2.62-.37,1-.12,1.12s.41,0,.83-.23.9-.87,1.54-1.39l0,.07c.6-.73,1-1,1.39-1.54.13.12.29.05.45-.06a1.12,1.12,0,0,1,.47-.17v0c.48-.41,1.13,0,1.67-.22,0,0,0,.11-.16.12.4-.05,1-.06,1,.14,1,.06,2.33.59,3.06.58l-.06,0c.44-.06.47.16.91.24,0,0,0,.05,0,.06.47,0,1.12.52,1.47.62l0,.12.77.41-.27-.19c.27-.25.47.52,1.14.63.49.34,1.4,0,1.85.42.34,0-.35.1.09.21-.07.17-.23,0-.2.18.41.14.52.51,1.05.67l-.06.13c.74.12,1,.81,1.58.83.68.25.21.6,1,.73l.16.31c.26.19.32-.08.57.18-.08.09.34.3.1.3.58.57,1.53.6,2.21,1.43.32-.07.67.33.9.28,0,.1.83.62.23.46,0,0-.11-.07-.09-.1l-.13.08c.31.55.93.5,1.34.89-.1-.14-.28-.27-.1-.25l.39.35-.16,0c.19.18.37.37.55.56v-.18c.24.31.17.57.61.73.21,0-.12-.4.2-.14.29.42.68,1.08,1.05,1.61.09-.15.19,0,.32.12l-.1.1c.57.43-.08.37.42.84h.23c.57.36-.06.42.61.81-.16-.22.21-.27.32.05h-.16c.12.14.2.17.24.29-.12-.06-.2,0-.06.27l-.23-.08.46.34c.06.41.47.92.36,1.14l.15.42c.09.22.21.46.34.51-.18-.11-.07.34-.26.27a1.33,1.33,0,0,1,.44,1l0,0c.08,1,.61,1.55.52,2.43.16-.06.13.41.32.27.32.89-.31,1.65.34,2,0,.42-.17.49-.21.7l0-.1a6.74,6.74,0,0,1-.08,1.56c0,.29.31.38.15.88-.09-.18-.1,0-.13.22,0-.13,0-.17-.16.06a.38.38,0,0,1,.05.16h0c0,.32,0,.28.06.13,0,0,.05,0,.09,0-.23.29-.2.92-.42.9-.21.95-.24,1.68-.46,2.48-.14.05-.15-.17-.11-.4l-.17.55c-.14-.06,0-.34.07-.52-.46.55-.3,1.42-.86,2.06l0,.21,0,0c.06,0,.06.23,0,.35s-.27-.15-.45.21a3.54,3.54,0,0,0-.51,1.24c.13-.19.16-.09.15,0s-.27.21-.3.38l-.16-.08c.18,0-.12.55-.09.66-.17,0,.06-.33,0-.43-.4.71-.2.36-.61,1.06-.12.44.18,0,.2.28a3.13,3.13,0,0,1-.61,1.05l.21,0a3,3,0,0,1-1,1.35c-1,2.61-.87,3.1-.4,2.94a4.32,4.32,0,0,0,1.19-1C345.26,409.43,345.54,408.23,346.76,405.89Z" transform="translate(-261.66 -352.18)"/><path class="cls-3" d="M326.1,377l0,.14S326.15,377.07,326.1,377Z" transform="translate(-261.66 -352.18)"/><path class="cls-3" d="M340.38,402.61l0,0Z" transform="translate(-261.66 -352.18)"/><path class="cls-3" d="M327.29,381.83h0Z" transform="translate(-261.66 -352.18)"/><path class="cls-3" d="M323.66,377.46c1,1.12,1,1.61,2.16,2.69.45.57,1,1.13,1.46,1.68.4.13.56.76,1,1l0,.21a.47.47,0,0,1,.29.34h0c.2.12.28.35.38.41h0l.15.21h-.07a2.39,2.39,0,0,1,.63.88l.12-.11c.21.7.64.75.77,1.42l0,0c.78.5.36,1.27,1.11,1.82-.09-.07-.05.08-.09.09.22.33.43.69.72.55.12.25,0,.25-.08.34.12-.07.29.13.39.33l-.09-.07.32.55.19-.23c.08.34-.26.22-.06.49l.2-.1c.16.44,0,.83,0,1.31.71,1.75,2.08,3.38,2.46,5.16l-.12.14c-.21.13.53.29.35.45l.19.14c0,.07,0,.2-.1.13.07.17.11.16.23.26l-.05.25c.2.73.73,1.19,1,1.93a10.08,10.08,0,0,0,1.69,3.37c.94,1.18.74,3.06,1.57,4.22,0,.06.09.15.11.14.13.41.23.82.32,1.23l.18.85.31,1.53c.11.46.25.81.54.76s.75-.52,1.13-1.92l.06,0a2.36,2.36,0,0,0-.42-1.8c.3-.16-.13-.63-.08-.83h0c-.38-.38-.1-1-.48-1.36,0,0,.12,0,.17.08-.16-.29-.39-.69-.22-.78-.34-.71-.7-1.74-1.18-2.05h.06c-.3-.16-.18-.31-.4-.55,0,0,0-.05,0-.05-.31-.19-.4-.79-.58-1l.11-.07-.28-.53.07.22c-.35.07,0-.51-.38-.81-.13-.39-1-.45-1-.91-.23-.12.31.05.07-.17.17-.09.17.08.27-.05-.21-.24,0-.52-.3-.8l.12-.08c-.43-.32-.2-.9-.56-1.08-.31-.4.25-.48-.22-.83l.09-.26c-.06-.21-.28,0-.29-.3.11,0,0-.32.12-.24-.06-.58-.71-.91-.72-1.7-.28,0-.3-.44-.51-.47.08-.06-.29-.67.08-.39,0,0,.06.08,0,.09h.15c.06-.49-.45-.63-.58-1,0,.13.08.28-.05.22l-.14-.36.14,0-.17-.55-.1.13c-.05-.28.13-.47-.19-.67-.16-.08-.07.32-.23.07a9.63,9.63,0,0,0-.33-1.4c-.13.11-.18,0-.27-.11l.12-.08c-.4-.37.21-.3-.16-.69h-.21c-.46-.29.16-.35-.42-.64.12.17-.23.23-.29,0h.15c-.08-.1-.16-.12-.17-.21s.2-.05.09-.22l.21,0-.4-.23c0-.32-.37-.65-.26-.85,0,0-.21-.6-.47-.63.18.05.06-.28.24-.27-.21-.07-.55-.44-.5-.69l0,0c-.21-.71-.8-1-1-1.62-.12.11-.23-.23-.36-.05-.52-.45-.3-1.26-1-1.11-.2-.23-.08-.38-.14-.53l.07,0a8,8,0,0,1-.7-.93c-.18-.13-.45,0-.61-.32.17,0,.06-.09,0-.2.07.06.13.05.08-.14a.28.28,0,0,1-.13,0s0,0,0,0c-.18-.16-.18-.1-.13,0s0,0,0,.08c0-.29-.42-.53-.28-.68a12.36,12.36,0,0,0-1.43-1.16c0-.12.2-.08.35,0l-.31-.29c.12-.1.23.12.33.2-.14-.54-.86-.6-1.1-1.18h-.17v0s-.19,0-.27,0,.23-.21,0-.41-.5-.42-.76-.58c.09.13,0,.15-.08.13s-.07-.25-.19-.29l.12-.13c-.08.16-.4-.14-.49-.12,0-.15.24.07.34,0l-.65-.58c-.31-.11-.07.16-.29.17-.22-.15-.5-.24-.66-.53l0,.19a1.59,1.59,0,0,1-.82-.8c-1.86-.73-2.29-.48-2.26-.1a2.27,2.27,0,0,0,.51.94C321.48,376.22,322.34,376.35,323.66,377.46Z" transform="translate(-261.66 -352.18)"/><path class="cls-3" d="M284.33,405l-.1,0S284.27,405,284.33,405Z" transform="translate(-261.66 -352.18)"/><path class="cls-3" d="M270.73,425.33v0Z" transform="translate(-261.66 -352.18)"/><path class="cls-3" d="M279.77,405.18h0v0Z" transform="translate(-261.66 -352.18)"/><path class="cls-3" d="M285.2,402.71a13.24,13.24,0,0,0-1.87.19,4.21,4.21,0,0,0-1.74.77,8.4,8.4,0,0,0-1.81,1.51c-.09.41-.68.67-.8,1.11l-.2,0a.5.5,0,0,1-.25.36l0,0c-.05.22-.24.36-.26.47l0,0-.14.2,0-.07a2.25,2.25,0,0,1-.56.85l.15.08c-.55.43-.4.83-.92,1.19l0,0c-.07.86-.92.81-1,1.69,0-.11-.1,0-.12,0-.16.32-.34.66-.07.84-.14.21-.2.12-.32.08.12.08.05.3-.05.47v-.11l-.26.52.29.05c-.23.22-.32-.11-.42.18l.19.11c-.26.33-.67.38-1,.65-1,1.44-1.3,3.33-2.35,4.59h-.18c-.23-.08.14.55-.09.51l0,.21c-.06,0-.15.11-.16,0-.08.15,0,.17,0,.31l-.21.11c-.39.57-.36,1.21-.69,1.84a7.31,7.31,0,0,0-1.1,3.22,6.65,6.65,0,0,1-.7,2.05,3.43,3.43,0,0,0-.28,2.29c0,.06.06.18.09.18a7.37,7.37,0,0,0,.19,1.39,5.19,5.19,0,0,0,.35.94,3.86,3.86,0,0,0,1.16,1.43c.47.32.88.37,1,.1a13,13,0,0,0-.16-1.9h.05a1.89,1.89,0,0,0-.58-1.13c.3-.13-.06-.46,0-.61h0c-.3-.32.15-.7-.06-1,0,0,.11,0,.12.1,0-.24-.08-.59.12-.59,0-.59.3-1.39.13-1.87l.05,0c-.13-.28.06-.29,0-.58,0,0,.05,0,.06,0-.12-.31.22-.73.21-1l.12,0,.16-.51-.09.18c-.31-.19.34-.29.27-.73.17-.31-.4-1-.1-1.23-.09-.23.18.25.17-.05.17.07.06.16.22.15,0-.27.33-.32.35-.66l.13,0c-.07-.48.49-.64.38-1,.06-.44.5-.08.43-.61l.25-.07c.11-.16-.16-.23,0-.38.1.06.2-.2.25,0,.38-.35.18-1,.76-1.41-.15-.23.12-.45,0-.62.1,0,.31-.56.34-.14,0,0,0,.08-.06.06l.1.1c.4-.19.18-.64.39-.94-.09.07-.15.2-.19.08l.18-.29.07.12.29-.4h-.16c.18-.17.44-.12.4-.46,0-.17-.29.1-.2-.14a8.45,8.45,0,0,0,.86-.91c-.16-.05-.1-.14-.07-.26l.13.06c.06-.47.35,0,.44-.42l.07.08-.2-.25c0-.48.36,0,.27-.6-.08.16-.31-.09-.15-.24l.09.12c0-.12,0-.18.08-.23s.15.14.22,0l.08.19,0-.41c.26-.13.33-.57.54-.55,0,0,.38-.39.27-.61.05.16.26-.06.34.1,0-.2.09-.61.31-.66v0c.48-.4.42-1,.9-1.31-.15-.07.1-.25-.12-.32.18-.58,1-.53.58-1.1.14-.22.31-.13.42-.2V408a3.56,3.56,0,0,1,.6-.72c.07-.16-.12-.4.15-.56,0,.15.09,0,.17,0s0,.11.14.07a.2.2,0,0,1,0-.11h0c.11-.15.07-.16,0-.11s0,0-.08,0c.25,0,.42-.37.57-.22.41-.38.62-.78,1-1.08.09.07,0,.2,0,.31l.26-.2c.07.14-.12.17-.19.25.45,0,.59-.59,1.1-.52l.05-.15h0c0-.06,0-.17.11-.21.1.11.08.29.29.24s.46-.16.68-.26c-.12,0-.09-.09,0-.14s.18.11.27.05l0,.18c-.06-.18.28-.2.32-.27.06.13-.17.12-.2.22.44,0,.22,0,.66,0,.24-.1,0-.17.1-.31s.45-.11.68.05l-.05-.17a.9.9,0,0,1,.89.35c.84,0,1.39.18,1.73.19s.44-.14.46-.32a1.33,1.33,0,0,0-.31-.69,4,4,0,0,0-.33-.36,3.16,3.16,0,0,0-2-.9A9.11,9.11,0,0,0,285.2,402.71Z" transform="translate(-261.66 -352.18)"/><path class="cls-3" d="M276.46,436l.12.12S276.56,436.07,276.46,436Z" transform="translate(-261.66 -352.18)"/><path class="cls-3" d="M295.6,409.61l0,0S295.59,409.61,295.6,409.61Z" transform="translate(-261.66 -352.18)"/><path class="cls-3" d="M282.5,439.2h0l0,0Z" transform="translate(-261.66 -352.18)"/><path class="cls-3" d="M273.76,437c1,.59,1.7,1,2.4,1.29a8.87,8.87,0,0,0,2.7.75,12.65,12.65,0,0,0,3.63.12c.54-.26,1.54-.16,2.14-.5l.28.08a1.45,1.45,0,0,1,.69-.23v.05a8.37,8.37,0,0,1,.82-.36v0l.37-.17,0,.08a14,14,0,0,1,1.54-.78l-.11-.12c1.09-.39,1.24-.92,2.18-1.36v0a4.35,4.35,0,0,1,1.2-1.19,2.79,2.79,0,0,0,1.07-1.34c-.06.17.11,0,.13,0,.34-.53.64-1.13.36-1.29.22-.39.26-.27.4-.26-.12-.06,0-.43.14-.74l0,.16c.12-.3.24-.61.34-.91l-.32.07c.26-.44.36,0,.47-.48l-.21-.07a17.55,17.55,0,0,1,1.06-1.54,29.09,29.09,0,0,0,.78-4.13,16.5,16.5,0,0,1,1-3.85l.19-.07c.25,0-.18-.77.06-.81l0-.31c.06-.07.15-.24.17-.08a.91.91,0,0,0,0-.49l.21-.26a21.34,21.34,0,0,0,.43-3.19,7.33,7.33,0,0,0,.23-2.8,11.87,11.87,0,0,0-.63-2.87c-.43-1-.7-2.2-1.22-3.35a5.38,5.38,0,0,0-2.51-2.76c-.05-.08-.26-.13-.28-.1a8.77,8.77,0,0,0-2-1,6.78,6.78,0,0,0-1.53-.31,5.61,5.61,0,0,0-2.79.43c-.78.37-1.16.85-.9,1s1.14,0,2.7.43l0,.06a10.09,10.09,0,0,0,2.12.21c0,.34.7.32.85.52l0,0c.64,0,.87.77,1.41.94a.16.16,0,0,1-.2,0c.33.22.74.57.61.72.67.66,1.19,1.89,1.67,2.38l-.07,0c.33.27.19.43.4.79,0,0,0,.06,0,.06.31.34.29,1.14.41,1.45l-.12,0c0,.27.09.53.11.8v-.3c.37.07-.16.62.08,1.2,0,.54.71,1.15.49,1.75.14.29-.24-.28-.16.16-.18,0-.09-.21-.25-.12,0,.42-.25.65-.2,1.17h-.14c.16.69-.39,1.19-.24,1.67,0,.7-.51.36-.39,1.13l-.26.22c-.1.3.18.27,0,.58-.11-.05-.2.4-.26.18-.37.71-.13,1.6-.69,2.54.17.27-.09.75.05,1-.11,0-.25,1-.34.4,0-.05,0-.14.05-.12l-.12-.1c-.39.53-.09,1.1-.25,1.66.08-.16.12-.39.18-.22l-.13.53-.09-.14-.24.77.17-.08c-.16.37-.43.45-.33.91.07.22.28-.31.23.1-.21.48-.55,1.18-.78,1.77.18,0,.12.15.1.33l-.14,0c0,.7-.37.13-.46.79l-.07-.09.22.27c0,.65-.39.17-.32.92.09-.24.34,0,.14.29l-.09-.14c0,.17,0,.25-.11.34,0-.13-.15-.15-.25.09l-.07-.24c0,.19,0,.36,0,.54-.31.24-.51.82-.76.81l-.28.31a1,1,0,0,0-.28.51c0-.2-.32.07-.35-.13,0,.25-.39.76-.69.79l0,0c-.78.43-1.11,1.1-1.93,1.32.11.13-.31.25-.12.39-.7.58-1.58.19-1.67.91-.37.15-.49,0-.69,0l.08-.06a5.91,5.91,0,0,1-1.45.32c-.26.1-.27.41-.78.37.15-.13-.05-.09-.24-.08.12,0,.15-.07-.09-.14a.35.35,0,0,1-.13.08s0,0,0,0c-.31.05-.26.09-.11.1,0,0,0,0,.05.08-.32-.14-.9,0-.93-.21-.93,0-1.63.11-2.42,0-.07-.13.14-.18.37-.18a4.85,4.85,0,0,1-.55-.08c0-.14.32,0,.5,0-.58-.37-1.39-.07-2.05-.55l-.19.06,0,0c0,.06-.21.08-.33.05s.12-.28-.24-.42-.8-.28-1.19-.41c.18.12.09.15,0,.15s-.21-.25-.36-.28l.07-.17c0,.19-.52-.09-.62-.07,0-.17.31.06.4,0a10.26,10.26,0,0,1-1-.61c-.41-.13,0,.18-.3.2a2.48,2.48,0,0,1-.9-.7v.21a2.13,2.13,0,0,1-1-1.22A13.27,13.27,0,0,1,269.4,431c-.3-.34-.46-.26-.57-.05a2.34,2.34,0,0,0,0,1.1,5,5,0,0,0,.18.7,5.35,5.35,0,0,0,1.88,2.64A16.23,16.23,0,0,0,273.76,437Z" transform="translate(-261.66 -352.18)"/><path class="cls-3" d="M288.12,408.28l-.1.06S288.09,408.34,288.12,408.28Z" transform="translate(-261.66 -352.18)"/><path class="cls-3" d="M280.84,430v0Z" transform="translate(-261.66 -352.18)"/><path class="cls-3" d="M284.87,410.9h0v0Z" transform="translate(-261.66 -352.18)"/><path class="cls-3" d="M286.51,406.58a12.52,12.52,0,0,0-1.13,2.56,16.49,16.49,0,0,0-.51,1.75c.14.34-.24.73-.15,1.11l-.17.08a.32.32,0,0,1-.08.35l0,0c0,.19-.08.36-.05.45l0,0-.05.2,0-.05a1.53,1.53,0,0,1-.22.84l.17,0c-.36.48-.1.79-.47,1.21l0,0c.21.76-.61.88-.43,1.66,0-.1-.09,0-.13,0-.05.31-.14.63.17.74-.08.22-.16.14-.28.13.13.05.13.25.08.42l0-.09-.11.49h.28c-.16.23-.33,0-.35.23l.21.07c-.16.33-.55.43-.82.72-.56,1.39-.54,3.09-1.35,4.28h-.18c-.24-.05.22.48,0,.46l.05.19c-.05,0-.13.1-.15,0-.06.14,0,.15,0,.28l-.19.1c-.3.52-.18,1.09-.44,1.66a6.3,6.3,0,0,0-.81,2.85c0,1.19-1.36,2.13-1.33,3.37-.05,0,0,.14,0,.15l-.37,1s-1.73,4.86,1.44,1.79l0,0a1.54,1.54,0,0,0,.33-1.31c.33,0,.18-.45.33-.54l0,0c-.13-.42.43-.63.33-1,0,0,.1,0,.08.13,0-.25.08-.6.27-.55.14-.58.49-1.35.32-1.8l0,0c-.12-.28.06-.28,0-.54,0,0,.05,0,.06,0-.12-.29.19-.67.17-.88l.12,0,.12-.46-.08.16c-.31-.17.32-.27.22-.67.14-.29-.49-.84-.22-1.1-.1-.21.21.21.17-.05.17.05.07.14.23.13,0-.25.3-.3.27-.62l.14,0c-.13-.44.4-.61.25-.93,0-.4.48-.11.34-.58l.24-.09c.08-.15-.19-.19,0-.34.11.05.17-.2.24-.06.32-.34,0-.91.51-1.35-.18-.19,0-.42-.09-.56.1,0,.19-.54.3-.17,0,0,0,.08,0,.06l.12.09c.35-.23.05-.61.19-.9-.08.07-.11.2-.17.09l.11-.28.09.1.21-.4h-.16c.14-.18.4-.18.29-.48-.08-.14-.26.14-.23-.1a5.3,5.3,0,0,0,.63-.94c-.17,0-.13-.12-.13-.22l.14,0c-.06-.44.34,0,.32-.46l.08.07-.25-.2c-.15-.42.35-.08.11-.58,0,.16-.33,0-.21-.19l.12.09c0-.11,0-.16,0-.22.05.09.18.1.21-.06l.13.16-.15-.36c.21-.17.15-.57.37-.6,0,0,.24-.43.08-.6.09.13.22-.11.34,0-.1-.17-.09-.56.1-.65v0c.33-.47.09-1,.44-1.37-.17,0,0-.26-.22-.26,0-.55.71-.75.15-1.13,0-.24.23-.22.3-.32l0,.06a3.5,3.5,0,0,1,.24-.85c0-.18-.29-.3-.13-.55.09.13.1,0,.14-.1,0,.08,0,.11.15,0a.24.24,0,0,1-.05-.1h0c0-.19,0-.17-.07-.1s0,0-.08,0c.21-.13.16-.5.36-.46a12.74,12.74,0,0,0,.12-1.42c.11,0,.17.11.17.25l.06-.32c.15.05,0,.21,0,.31.35-.29,0-.83.37-1.18l-.08-.13,0,0c-.06,0-.11-.14-.11-.21s.29.1.36-.11.1-.5.1-.74c-.06.11-.12.05-.15,0s.18-.13.16-.23l.17,0c-.18,0-.08-.34-.14-.41.15,0,.06.21.14.27.13-.46.07-.23.19-.7-.07-.29-.18,0-.3-.15s-.06-.46.08-.71l-.17.06a1.5,1.5,0,0,1,.1-1c-.42-.81-1-.86-1.2-.78s-.39.2-.39.38a1.73,1.73,0,0,1-.22.37C286.38,404.77,286.83,405.3,286.51,406.58Z" transform="translate(-261.66 -352.18)"/><path class="cls-3" d="M296.77,404.83l.06.14S296.84,404.9,296.77,404.83Z" transform="translate(-261.66 -352.18)"/><path class="cls-3" d="M292.56,434.89l0,0Z" transform="translate(-261.66 -352.18)"/><polygon class="cls-3" points="36.14 57.77 36.14 57.77 36.11 57.75 36.14 57.77"/><path class="cls-3" d="M294.35,405.61a5.15,5.15,0,0,1,1.2,1.17c.29.37.6.72,1.09,1.28a14.42,14.42,0,0,1,1.15,1.89c.36.23.35.89.65,1.23l-.09.19a.48.48,0,0,1,.15.43h0c.16.19.14.44.21.54h0l.07.25-.07,0a2.24,2.24,0,0,1,.21,1.09l.16,0c-.12.75.23,1,0,1.69h0c.41.89-.36,1.33-.07,2.25,0-.12-.09,0-.12,0,0,.41-.07.85.25.92-.06.3-.15.22-.28.24.14,0,.15.3.1.53l0-.12-.1.68.29-.07c-.16.34-.34,0-.36.37l.22.05c-.17.48-.58.68-.88,1.1-.66,1.88-1,4.18-2.08,5.77h-.18c-.24-.07.12.62-.12.59v.24c-.07,0-.17.12-.17,0a.44.44,0,0,0-.06.36l-.24.12c-.46.63-.55,1.35-1.07,2a27.81,27.81,0,0,0-2.46,3,4.22,4.22,0,0,1-1.95,1.32l-1.13.44a5.94,5.94,0,0,0-1,.57s-.14.11-.13.13c-.42.18-.88.28-1.32.42l-.94.24-1.72.45c-.52.15-.89.36-.78.63s.22.28.56.45a5.66,5.66,0,0,0,1.62.48l0,.06a2.75,2.75,0,0,0,1.92-.54c.18.29.69-.19.91-.15v0c.41-.41,1.1-.2,1.48-.62,0,0,0,.12-.08.18.31-.21.73-.51.85-.35.39-.22.84-.52,1.26-.79a3,3,0,0,0,.86-.9v.06c.13-.35.31-.29.52-.6,0,0,.06,0,.06,0,.14-.37.73-.71.87-1l.1.08c.16-.17.32-.34.47-.52l-.2.17c-.19-.3.51-.24.68-.77.34-.33,0-1.19.44-1.45,0-.29.1.32.19,0,.16.1,0,.2.17.21.12-.32.47-.35.6-.76l.13.06c.07-.59.69-.79.66-1.22.16-.55.55-.14.58-.79l.27-.12c.15-.21-.13-.27.07-.48.1.07.23-.28.27-.08.44-.52.26-1.27.85-1.9-.15-.25.13-.57,0-.76.11,0,.32-.75.36-.25,0,.05,0,.11-.06.09l.11.1c.41-.34.16-.84.36-1.25-.09.11-.14.28-.19.14l.16-.4.08.13.28-.58-.16,0c.17-.27.44-.3.35-.7-.05-.18-.27.22-.21-.1a9.63,9.63,0,0,0,.74-1.44c-.17,0-.13-.13-.12-.29l.14,0c0-.6.36-.12.35-.72l.08.08-.25-.22c-.16-.57.35-.21.1-.85,0,.22-.33,0-.22-.22l.12.09c0-.15,0-.21,0-.31.05.1.19.09.2-.14l.14.18-.17-.47c.21-.3.09-.85.3-1,0,0,.18-.71,0-.89.12.15.21-.24.35-.12a1.13,1.13,0,0,1-.06-1l0,.05c.17-.84-.24-1.42-.1-2.17-.16.05-.11-.36-.31-.24-.29-.72.21-1.46-.49-1.6-.11-.33.06-.44,0-.62l.05.07c-.22-.62-.28-.8-.43-1.27-.14-.21-.44-.13-.53-.56.16.09.08-.07,0-.22.06.09.12.1.1-.13a.29.29,0,0,1-.12-.07l0,0c-.15-.23-.16-.17-.12-.05s0,0-.06.07c0-.32-.36-.69-.19-.82a7.34,7.34,0,0,0-1.44-1.53c0-.13.21-.07.37.06-.12-.11-.22-.24-.34-.35.12-.1.25.16.36.26-.17-.63-1-.75-1.3-1.36h-.18l0,0s-.21,0-.3,0,.2-.23-.07-.43-.66-.4-1-.53c.14.12,0,.15,0,.15s-.16-.25-.3-.26l.08-.17c0,.18-.47-.06-.56,0,0-.16.28,0,.36-.05a9.58,9.58,0,0,0-.92-.42c-.39,0,0,.18-.23.26a2.56,2.56,0,0,1-.92-.28l.06.19a2.41,2.41,0,0,1-1.25-.34,3.15,3.15,0,0,0-1.86.78c-.23.25-.2.43,0,.55a1.51,1.51,0,0,0,.57.27,2.74,2.74,0,0,0,.36.1,7.89,7.89,0,0,0,1.65.33A5.5,5.5,0,0,1,294.35,405.61Z" transform="translate(-261.66 -352.18)"/><path class="cls-3" d="M315,381.67l-.11.12S315,381.78,315,381.67Z" transform="translate(-261.66 -352.18)"/><path class="cls-3" d="M328.6,414.53h0Z" transform="translate(-261.66 -352.18)"/><path class="cls-3" d="M311.09,387.1h0v0Z" transform="translate(-261.66 -352.18)"/><path class="cls-3" d="M313.88,379.06c-.47,1-.86,1.6-1.17,2.25a11,11,0,0,0-.9,2.46,20.29,20.29,0,0,0-.72,3.32c.12.55-.22,1.42-.1,2.06l-.17.22a1.17,1.17,0,0,1,0,.67h0a7.45,7.45,0,0,1,.05.83h0v.38l0-.06a6.94,6.94,0,0,1,.07,1.63l.17-.05c-.16,1.08.25,1.44.13,2.42h0a3,3,0,0,1,.34,1.55,2.94,2.94,0,0,0,.44,1.55c-.09-.14-.06.09-.1.09.18.55.46,1.12.75,1,.14.39,0,.36-.08.45.14-.05.31.27.43.57l-.1-.12c.13.29.27.57.42.85l.16-.28c.14.48-.24.26,0,.66l.2-.1a16.85,16.85,0,0,1,.37,1.8c1.39,2.48,3.77,4.28,5.17,6.36l0,.2c-.15.2.74.25.64.48l.29.13c0,.09.11.25,0,.18a.75.75,0,0,0,.41.26l.1.32a22.1,22.1,0,0,0,2.4,2,7.84,7.84,0,0,0,2.11,1.7,13.38,13.38,0,0,0,2.61,1.14c1.06.26,2.1.77,3.28,1.09a6.09,6.09,0,0,0,3.56,0,.32.32,0,0,0,.24-.11,15.91,15.91,0,0,0,2-.49,12.78,12.78,0,0,0,1.31-.5,13.2,13.2,0,0,0,2.16-1.2c1.19-.86,1.43-1.47-2.11-.91l0-.07a5.48,5.48,0,0,0-2.1.94c-.2-.27-.78.2-1,.15v0c-.52.39-1.2,0-1.72.29,0,0,0-.12.15-.14-.39.09-.94.13-1-.05-.95.05-2.22-.32-2.91-.23l.06,0c-.4.08-.45-.13-.86-.17,0,0,0,0,0-.06-.44,0-1.07-.45-1.39-.54l0-.12a6.7,6.7,0,0,1-.7-.37l.24.18c-.27.24-.41-.49-1-.63-.43-.33-1.35-.06-1.71-.56-.32-.05.35-.05-.05-.22.11-.15.22,0,.23-.15-.36-.19-.39-.55-.85-.79l.08-.12c-.66-.23-.78-1-1.27-1.08-.56-.39,0-.62-.72-.91l-.05-.33c-.18-.24-.32,0-.48-.3.1-.07-.22-.37,0-.31-.38-.67-1.25-.94-1.67-1.9-.32,0-.54-.48-.78-.49.06-.08-.63-.77-.1-.49,0,0,.09.1.06.12l.15,0c-.16-.6-.76-.69-1.07-1.15.06.15.21.32,0,.26l-.3-.41h.16l-.4-.65-.06.17c-.15-.34,0-.59-.43-.81-.2-.1,0,.4-.22.1-.2-.47-.47-1.17-.72-1.73-.11.13-.2,0-.3-.15l.11-.09c-.47-.49.17-.35-.25-.85h.12l-.35,0c-.48-.43.14-.39-.44-.87.11.24-.25.23-.3-.1l.15,0c-.08-.15-.16-.19-.17-.31.1.07.21,0,.1-.26l.22.11-.41-.38c0-.4-.31-.94-.17-1.14,0,0-.12-.81-.36-.95.15.13.13-.32.3-.22a1.32,1.32,0,0,1-.29-1.05l0,.05a5.62,5.62,0,0,0-.17-1.23,2.42,2.42,0,0,1-.07-1.17c-.16.05-.08-.4-.29-.28-.24-.88.45-1.57-.18-1.92,0-.41.18-.46.23-.67l0,.1a9.85,9.85,0,0,1,.14-1.51c0-.29-.32-.38-.15-.86.09.18.11,0,.14-.21,0,.12,0,.16.16-.06a.38.38,0,0,1-.05-.15h0c0-.32,0-.27-.07-.13,0,0,0,0-.09,0,.21-.29.18-.89.4-.88.18-.92.15-1.64.33-2.41.13-.06.16.15.13.38l.13-.54c.15.05,0,.33,0,.5.42-.55.19-1.38.69-2l-.06-.2,0,0c-.06,0-.08-.21-.06-.33.17,0,.28.12.43-.24a3,3,0,0,0,.37-1.22c-.1.19-.14.1-.15,0s.25-.22.26-.38l.17.05c-.19,0,0-.53,0-.63.17,0,0,.32,0,.41l.49-1.06c.07-.43-.19,0-.24-.26a3.05,3.05,0,0,1,.5-1.05l-.21.05a2.76,2.76,0,0,1,.83-1.36c.78-2.57.61-3,.15-2.88a4.23,4.23,0,0,0-1.11,1C315,375.54,314.84,376.72,313.88,379.06Z" transform="translate(-261.66 -352.18)"/><path class="cls-3" d="M296.51,363.89l-.11-.05S296.44,363.89,296.51,363.89Z" transform="translate(-261.66 -352.18)"/><path class="cls-3" d="M274.14,377.16l0,0Z" transform="translate(-261.66 -352.18)"/><polygon class="cls-3" points="30.29 10.61 30.29 10.61 30.31 10.58 30.29 10.61"/><path class="cls-3" d="M297.32,361.61c-1.37.22-1.8,0-3.24.44a10.75,10.75,0,0,0-2.13.74c-.24.35-.91.32-1.19.69l-.19-.06a.49.49,0,0,1-.39.22v0c-.14.18-.38.22-.45.31v0l-.22.13v-.07a2.3,2.3,0,0,1-.89.56l.1.14c-.7.16-.72.61-1.37.74v0c-.44.77-1.2.43-1.63,1.22.05-.09-.08,0-.1-.08-.28.25-.57.51-.38.77-.22.16-.24.05-.34,0,.09.11-.06.3-.22.43l0-.1-.45.39.26.15c-.29.13-.26-.22-.46,0l.14.18c-.37.23-.78.11-1.21.24-1.42,1-2.5,2.63-4,3.28l-.16-.09c-.17-.18-.13.55-.31.41l-.08.2c-.07,0-.18,0-.14-.08-.14.1-.12.13-.18.26h-.23c-.62.28-.9.87-1.52,1.19a11.06,11.06,0,0,0-2.78,1.77c-1,.93-2.66.46-3.85,1.28-.05,0-.14.1-.13.12-.4.13-.82.28-1.23.44a7.43,7.43,0,0,0-.86.45,4.22,4.22,0,0,0-1.34,1.25c-.31.48-.35.9-.07,1a10,10,0,0,0,1.93-.3v.06a2.06,2.06,0,0,0,1.16-.75c.19.27.49-.16.67-.12v0c.28-.37.84-.07,1.14-.4,0,0,0,.12-.07.15.25-.13.61-.32.69-.15a4.86,4.86,0,0,0,1.95-1v.06c.16-.29.3-.18.52-.4,0,0,.05,0,.05,0,.16-.31.73-.39.89-.57l.08.1.47-.3-.19.08c-.11-.34.47,0,.71-.43.37-.14.28-1,.69-1.08.07-.24,0,.31.17.06.11.15,0,.16.1.25.18-.22.48-.09.69-.38l.1.11c.21-.47.78-.33.88-.7.3-.36.5.17.71-.34l.27,0c.18-.1,0-.28.21-.34.06.11.28-.09.24.08.53-.15.66-.84,1.38-1,0-.27.31-.37.29-.58.07.07.53-.4.37,0,0,0-.06.07-.08,0l.05.14c.46,0,.45-.54.76-.74-.11,0-.22.13-.2,0l.28-.21,0,.14.44-.27-.15-.07c.25-.09.47,0,.56-.29,0-.17-.31,0-.13-.21a8.11,8.11,0,0,0,1.17-.55c-.13-.1,0-.17,0-.27l.1.11c.24-.44.32.14.58-.25l0,.1-.09-.31c.15-.47.35.11.47-.47-.12.13-.25-.2,0-.28l0,.14c.08-.09.08-.16.16-.18s.09.18.21.06v.2l.12-.4c.29,0,.51-.41.71-.31,0,0,.5-.23.49-.48,0,.17.26,0,.27.22,0-.21.32-.54.54-.49v0c.6-.18.76-.75,1.35-.83-.11-.13.19-.19,0-.35.4-.46,1.09-.1,1-.76.22-.14.34,0,.48,0l0,.06a3.19,3.19,0,0,1,.88-.43c.15-.12.06-.41.39-.45-.05.15.06.08.18,0-.07,0-.08.09.1.11a.31.31,0,0,1,.05-.1s0,0,0,0c.17-.11.13-.14,0-.12s0,0-.05-.06c.24.07.55-.2.63,0,.56-.22.94-.53,1.42-.73.08.1,0,.21-.15.29l.35-.12c0,.15-.19.13-.29.19.48.14.82-.45,1.37-.33l.08-.14h0c0-.06.08-.17.15-.21.1.12.06.31.31.25s.55-.19.8-.32c-.14,0-.11-.07-.06-.13s.22.08.31,0l0,.18c-.09-.16.29-.25.32-.34.11.11-.17.16-.18.26l.77-.2c.24-.21-.09-.16,0-.34a1.49,1.49,0,0,1,.73-.26l-.13-.13a1.43,1.43,0,0,1,1-.26,3.38,3.38,0,0,0,1.1-1.35c.09-.3,0-.46-.17-.53a1.15,1.15,0,0,0-.58-.06l-.34,0C299.28,360.54,298.82,361.14,297.32,361.61Z" transform="translate(-261.66 -352.18)"/><path class="cls-3" d="M286.94,413.14l-.07.05S286.92,413.18,286.94,413.14Z" transform="translate(-261.66 -352.18)"/><path class="cls-3" d="M282.85,427.29v0Z" transform="translate(-261.66 -352.18)"/><polygon class="cls-3" points="22.72 62.79 22.72 62.78 22.7 62.77 22.72 62.79"/><path class="cls-3" d="M285,412.18c-.17.73-.52.88-.5,1.67a7,7,0,0,0-.12,1.12c.22.21-.08.46.08.7l-.15.05c.05.09.08.18,0,.23h0c.09.12,0,.22,0,.29l0,0v.13l-.06,0a.6.6,0,0,1-.05.54l.17,0c-.26.3,0,.51-.25.77h0c.33.5-.45.54-.15,1.05,0-.06-.09,0-.13,0,0,.2,0,.4.28.49,0,.14-.12.09-.25.07a.22.22,0,0,1,.14.28l0-.06,0,.31.27,0c-.12.14-.32,0-.31.12l.22.06c-.11.21-.47.25-.69.41-.36.85-.14,2-.81,2.67l-.17,0c-.23-.07.26.35,0,.3l.07.13c-.05,0-.11.05-.15,0,0,.09,0,.1,0,.19l-.18,0c-.24.3-.07.7-.28,1-.46.31-.53,1.22-.59,1.75,0,.81-1.2,1.12-1.15,1.95,0,0,0,.09,0,.11l-.34.57a3.86,3.86,0,0,0-.44,1.24c0,.54.28,1,1.78.36l0,.05c.3-.27.44-.47.32-.83.31.12.17-.25.31-.28l0,0c-.12-.32.4-.33.3-.63,0,0,.1.06.08.11,0-.16.07-.39.24-.32.12-.37.44-.82.27-1.17l0,0c-.13-.22.05-.18,0-.37h.06c-.13-.22.15-.42.12-.57l.12,0,.1-.29-.07.09c-.31-.17.29-.12.17-.42.12-.17-.51-.66-.27-.79-.12-.16.21.18.15,0,.17.07.08.11.23.13,0-.17.27-.16.22-.37l.14,0c-.15-.32.34-.35.16-.59,0-.28.46,0,.29-.35l.22,0c.07-.09-.19-.16-.06-.24s.14-.11.23,0c.27-.2-.07-.63.36-.87-.2-.16,0-.29-.15-.4.1,0,.14-.35.28-.08,0,0,0,.05,0,0l.12.07c.33-.12,0-.41.09-.6-.06,0-.08.13-.15,0l.08-.18.1.07.15-.25h-.15c.11-.11.36-.08.22-.3s-.23.07-.23-.08a2.42,2.42,0,0,0,.49-.6c-.17,0-.14-.09-.16-.16l.14,0c-.11-.3.33,0,.25-.29l.09.05-.27-.15c-.2-.29.32,0,0-.39,0,.11-.31,0-.22-.14l.12.07c0-.07-.05-.11,0-.15s.19.08.19,0l.15.11-.19-.25c.18-.1.06-.37.26-.38,0,0,.17-.29,0-.41.11.1.2-.06.34,0-.13-.11-.18-.37,0-.43v0c.24-.31-.07-.65.19-.92-.16,0,0-.17-.25-.17-.13-.37.54-.51-.07-.76,0-.15.19-.14.24-.21l0,0a2.15,2.15,0,0,1,.07-.57c0-.12-.33-.19-.23-.36.11.08.1,0,.11-.07s.06.07.15,0l-.07-.07h0c0-.12-.06-.11-.09-.05h-.07c.17-.09.05-.33.25-.31a5,5,0,0,0-.19-.94.22.22,0,0,1,.23.16v-.22c.15,0,.07.14.09.2.28-.2-.17-.54.09-.79l-.11-.08h0a.27.27,0,0,1-.16-.13c.14,0,.31,0,.32-.1s0-.33-.08-.48c0,.07-.1,0-.14,0s.14-.1.09-.16h.18c-.17,0-.16-.2-.23-.24.14,0,.1.13.2.16l0-.44c-.11-.16-.17,0-.32-.08s-.12-.28,0-.42l-.16,0a.42.42,0,0,1,.11-.56c-.57-1-1-1.12-1.3-1a.93.93,0,0,0-.44.46C284.55,410.91,285,411.31,285,412.18Z" transform="translate(-261.66 -352.18)"/></g></g></g></svg>